<svg xmlns="http://www.w3.org/2000/svg" viewBox="0 0 1197.28 855.53"><defs><style>.cls-1{fill:#fff;}.cls-2{fill:#ffd622;}.cls-3{fill:#6250fe;}</style></defs><g id="Layer_2" data-name="Layer 2"><g id="All"><g id="Payment"><g id="Payment-2" data-name="Payment"><g id="Phone"><path id="Shape" d="M427.46,758.54H294.83a48.05,48.05,0,0,1-19.5-4.25c-14.12-6.37-22.25-19.5-21.25-35a158.19,158.19,0,0,1,2.5-16.87q9.75-52.5,19.63-104.75c7.37-39.5,14.87-79,22.25-118.5,7.87-41.88,15.62-83.75,23.5-125.63,6.75-35.87,13.5-71.62,20.12-107.5,6.5-34.62,12.88-69.25,19.38-103.75,1.25-6.87,2.5-13.87,4.12-20.75a80.64,80.64,0,0,1,15.5-31.87,75.47,75.47,0,0,1,6-6.5c6-6.13,13.38-9,22-9.25,45.5-1.25,91.13-2.63,136.63-3.88L651,67c7.5-.25,15-.12,22.5-.87a32.74,32.74,0,0,1,14.37,1.75A34.7,34.7,0,0,1,694,70.79C708.83,80,718.83,93,723.58,110a35.71,35.71,0,0,1,0,18.5c-1.87,7.38-2.87,15-4.12,22.38-4.88,27.62-9.88,55.25-14.75,82.87l-14.63,82.5-15.37,86.25c-4.63,26.13-9.25,52.38-13.88,78.5l-14.62,82.5c-4.63,26.13-9.25,52.38-14,78.5l-12.38,69.75a40.45,40.45,0,0,1-5.75,14.5c-11.25,18.13-27.25,29.13-48.37,32.5a36.64,36.64,0,0,1-6.5.38H427.58A1,1,0,0,1,427.46,758.54ZM370.21,126.79a7.89,7.89,0,0,0-.5,1.75Q319.08,399.67,268.33,670.92a.45.45,0,0,0,.13.25c0,.12.12.12.25.25,5.37.75,349.12,5.5,351.62,4.87Q669.65,399,719.08,121.17,544.53,123.8,370.21,126.79Zm47.5,590.88a17.05,17.05,0,0,0,17,17.5c9.62,0,17.62-8.13,17.75-17.88,0-9.5-7.63-17.37-16.88-17.37A18,18,0,0,0,417.71,717.67Zm117.5-626.5a5.94,5.94,0,0,0-5.75,6,5,5,0,0,0,5.37,4.87,6,6,0,0,0,5.63-5.75A5.34,5.34,0,0,0,535.21,91.17Z"/><path id="Path" d="M405.33,592.17l97.5-2.25a14.55,14.55,0,0,1,2.38,0c3.25.12,4.5,1.5,4.12,4.75a25.3,25.3,0,0,1-.75,3l-12,40.12c-1.37,4.38-2.62,5.38-7.37,5.5-18.63.25-37.25.5-55.88.88-45.12.75-90.25,1.37-135.25,2.12h-2.37c-3.13-.12-5-2.12-4.75-5.25a15.4,15.4,0,0,1,.5-2.37c3.12-13.13,6.25-26.25,9.5-39.38a14.51,14.51,0,0,1,.62-2.25c.5-1.62,1.63-2.25,3.38-2.37,33.25-.88,66.75-1.63,100.37-2.5Z"/><path class="cls-1" d="M395.62,622.06a27.9,27.9,0,0,1-2.12,3.63,14.93,14.93,0,0,1-3.13,3.12c-2.25,1.63-4.62,1.63-6.25.13s-1.75-4.13-.37-6.25a14.61,14.61,0,0,1,3-3.25c.62-.63,1.37-1,2.12-1.63-1.12-1.62-2.75-1.87-4.25-2a12.86,12.86,0,0,0-12.75,8.38c-.12.37-.12,1-.5,1.25a5.56,5.56,0,0,1-2.37,1.5,2.09,2.09,0,0,1-2.5-1.88,10,10,0,0,1,.37-3.87c3-7.63,12.75-12.63,20.75-10.5a11,11,0,0,1,6.88,5.12c3.37,1.38,6.25,2.38,9,3.5s5.12,2.25,7.87,3.13a10.74,10.74,0,0,0,8.63-1.25,26.69,26.69,0,0,1-.63-3c-.5-2.88.88-5.25,3.25-5.5s4.25,1.62,4.63,4.37a22.67,22.67,0,0,1,0,2.88c1.5.25,3,.87,4.5.75,3.87-.13,7.62-.63,11.5-1,.62-.13,1.37-.25,2-.38,2.37-.5,3.5,0,3.87,1.5.5,1.75-.5,3.25-2.75,4a44.55,44.55,0,0,1-21.87.25c-6.13,4.25-12.63,4.13-19.38,1.25-2.12-.87-4.12-2-6.12-2.87A14.32,14.32,0,0,0,395.62,622.06Z"/><path class="cls-1" d="M338,637.81a15.59,15.59,0,0,1-13.38-9.37c-2.75-5.88-2-11.63,2.25-16.5s9.88-6.5,16.38-4.88c.37.13.62.13,1,.25,2.37.88,3.37,2.38,2.75,4s-2,1.88-4.63,1.38a15.57,15.57,0,0,0-5.37-.5,9.82,9.82,0,0,0-8.38,9.75,10.4,10.4,0,0,0,8.5,10.12,10.06,10.06,0,0,0,11.38-6,18.62,18.62,0,0,1,1-2.87,2.63,2.63,0,0,1,3.25-1.75,2.51,2.51,0,0,1,1.87,2.87,9.77,9.77,0,0,1-.5,2.63C352.25,633.56,346.25,637.81,338,637.81Z"/><path class="cls-1" d="M340.5,619.94c4-4.13,7.75-8.13,11.62-12.13a18,18,0,0,1,2.25-2.12,2.57,2.57,0,0,1,3.63.12,2.51,2.51,0,0,1,.25,3.38,20.47,20.47,0,0,1-1.5,1.87c-4.5,4.75-9.13,9.5-13.63,14.13a7.52,7.52,0,0,1-1.5,1.37c-1.62,1.13-3.25,1-4.37-.75a36.21,36.21,0,0,1-3-5.37c-.75-1.75-.38-3.13.87-3.88s2.63-.37,3.75,1.13C339.5,618.44,339.87,619.19,340.5,619.94Z"/><path class="cls-1" d="M470.87,614.56a20.13,20.13,0,0,1,3.13.38,2.26,2.26,0,0,1,1.87,2.75,4.64,4.64,0,0,1-2.12,2.25c-.63.37-1.5.12-2.38.12-1.87,0-3.5.13-5,1.63a2.36,2.36,0,0,1-3.62.12,2.78,2.78,0,0,1-.25-4,16.51,16.51,0,0,1,4.37-2.87C468.25,614.69,469.75,614.81,470.87,614.56Z"/><path d="M494.21,199.42c10.25-.25,20-.38,29.62-.63.13-.25.25-.37.25-.62-1.87-1.75-3.75-3.5-5.5-5.25a15.31,15.31,0,0,1-2.37-2.5,2.38,2.38,0,0,1,.12-3.38,2.56,2.56,0,0,1,3.38-.5,9.45,9.45,0,0,1,2.12,1.75C525,191.17,528,194,531,196.92a5.44,5.44,0,0,0,4.5,1.75c6.87-.25,13.87-.25,20.75-.38a28.18,28.18,0,0,0,3.12-.12c5,0,6.38,1.87,4.25,6.62Q551.78,232,539.83,259c-1.5,3.5-1.75,3.63-5.62,3.13a23.17,23.17,0,0,0-3-.13c-16.5,0-32.88-.25-49.38-.12-4,0-6.12-1.63-7.5-5-7-16.63-13.87-33.25-20.87-49.88a6.51,6.51,0,0,1-.63-1.62c-.87-3.5.63-5.5,4.25-5.63,8.63-.25,17.25-.37,25.88-.5a6,6,0,0,0,5.25-2.37c2.25-2.63,4.75-5.25,7.12-7.75.5-.5.88-1,1.38-1.5,2.25-2.38,3.75-2.75,5.12-1.63s1.13,3-1.25,5.5l-4.87,5.25A15.94,15.94,0,0,1,494.21,199.42Zm44.87,4.75c1.75,1.87,3.13,3.12,4.25,4.5a2.37,2.37,0,0,1-.25,3.37,2.52,2.52,0,0,1-3.37.38,8.1,8.1,0,0,1-1.63-1.25,21.93,21.93,0,0,1-3-2.88c-2.75-3.37-6-4.37-10.37-4.12-10.25.5-20.63.37-31,.62-6.38.13-4.25-.75-8.63,3.88-1.37,1.37-2.62,2.87-4,4.25-2.12,2.25-3.87,2.75-5.25,1.62s-1.12-3,1-5.25c.75-.87,1.63-1.62,2.25-2.5a3.37,3.37,0,0,0,.63-1.37H458.58c7.25,17.37,14.25,34.12,21.25,51h54.88q11.25-25.88,22.75-52.25Z"/><path d="M476.58,300.54h-.75c-5.75,2.25-9.5.25-10.75-5.75-1.37-6.37,2.13-11.62,8.63-12.75,3.25-.62,5.37.38,6.5,3.5a21.41,21.41,0,0,1,1.37,6.25c.25,4.63.75,9.38.38,13.88a14.49,14.49,0,0,1-13.88,12.75,3.36,3.36,0,0,1-3.62-2.88c-.13-1.5,1-2.62,3-3a31.43,31.43,0,0,0,3.62-.87,7.92,7.92,0,0,0,5.5-7.5A33.6,33.6,0,0,0,476.58,300.54ZM472,296c3-2.12,3.75-4.62,2.75-8.25C470.21,288.92,469.21,291.67,472,296Z"/><path d="M499.71,302.42c-8.13,2-13-3-10.75-11,1.25-4.38,3.87-7.38,8.37-8.5A9.68,9.68,0,0,1,502,283a3.51,3.51,0,0,1,2,2,32.91,32.91,0,0,1,1.12,6.88c.25,5.25.38,10.37.25,15.62-.12,6.38-4.62,9.88-9.75,12.38a2.74,2.74,0,0,1-4-1.25c-.75-1.5-.12-2.75,1.75-3.88.25-.12.38-.12.63-.25C499.21,311.79,500.46,309.17,499.71,302.42Zm-.5-14c-3.5,1-5.5,3.5-5.13,6.75a9.49,9.49,0,0,0,1.13,2.25,8.73,8.73,0,0,0,2.12-1.38A10.92,10.92,0,0,0,499.21,288.42Z"/><path d="M444,302.29a29.42,29.42,0,0,1,.5,4.38c0,1.75-1,3.12-2.38,3.12-1.62.13-2.5-.87-2.87-2.37a18.73,18.73,0,0,1-.5-2.63,4.59,4.59,0,0,0-1.75-3.5,3.93,3.93,0,0,1-.88-3c.25-1.37,1.63-1.75,3-1.75h4c0-.25.13-.5.13-.75-.63-.37-1.38-.87-2-1.25-3-1.5-5.38-3.37-5.38-7.12s2-5.88,5.25-7.38c0-.87.13-1.75.13-2.62.12-1.63.87-2.63,2.5-2.75s2.5.87,2.87,2.37a1.32,1.32,0,0,1,.13.63,3.13,3.13,0,0,0,1.75,3c1.62,1.12,2,2.5,1.25,3.75a2.54,2.54,0,0,1-3.5,1.12,5.07,5.07,0,0,0-1.25-.37c-1.5-.13-2.88.25-3.38,1.75s.88,1.87,1.88,2.5,2.25,1.12,3.25,1.75c2.25,1.37,3.5,3.25,3.25,5.87s-1.88,4-4.38,4.63A8.28,8.28,0,0,0,444,302.29Z"/><path d="M556,309.67c-.13-.13-.13-.25-.25-.25-5.38,0-7.63-1.75-8-6.13a8.78,8.78,0,0,1,7-9.5,6.14,6.14,0,0,1,3.37.13,3.41,3.41,0,0,1,2.25,1.87c2.5,6.38,2.88,12.75.25,19.13-1.25,3.12-6,5.75-9.5,5.62-1.75-.12-3.25-1.37-3.25-2.87s.88-2.38,2.88-2.75C555.33,314,555.58,313.79,556,309.67Zm-.38-10.25c-2.5,1.75-2.5,1.87-1.62,4.25C556.21,302.67,556.21,302.67,555.58,299.42Z"/><path d="M537.21,311.29c-5-.12-7.25-1.37-8.25-4.75-1.13-3.62.5-8.37,3.5-10.25a6,6,0,0,1,8,1.38c3.25,4.5,3.37,9.5,2.12,14.62-1,4.38-4.75,6.13-8.5,7.75a5.63,5.63,0,0,1-2,.38,2.41,2.41,0,0,1-2.62-2.13,4.19,4.19,0,0,1,1.37-2.75c1-.87,2.5-1.12,3.63-1.75C535.46,312.92,536.33,312,537.21,311.29Zm-3.13-6.62c.25.12.5.12.75.25,1.25-1.63,1.25-1.63.5-4.25C534.71,302.42,534.46,303.54,534.08,304.67Z"/><path d="M520,315.92a2.88,2.88,0,0,1-2.75,2.87,2.71,2.71,0,0,1-2.63-2.5,2.88,2.88,0,0,1,2.75-2.87A2.61,2.61,0,0,1,520,315.92Z"/><path d="M506.08,220.54c-.12-2.87.63-4.37,2.38-4.5s2.87,1.13,3.12,4c.63,8,1.13,16.13,1.63,24.13a4.23,4.23,0,0,1-.38,2.25,2.49,2.49,0,0,1-4.62.12,5.89,5.89,0,0,1-.63-3C507,236,506.46,228.29,506.08,220.54Z"/><path d="M496.46,246.17c0,1.62-.5,2.75-2,3.12a2.57,2.57,0,0,1-3.13-1.5,16.77,16.77,0,0,1-.87-2.62c-1.88-7.13-3.75-14.25-5.5-21.38a8.71,8.71,0,0,1-.38-3,4,4,0,0,1,1.75-2.25,2.21,2.21,0,0,1,3,1,10.69,10.69,0,0,1,.88,2.13c2,7.5,4,15.12,5.87,22.62A7,7,0,0,1,496.46,246.17Z"/><path d="M529.83,224.67c-.5,6.62-1,13-1.5,19.5-.25,2.75-1.37,4.25-3.12,4.12s-2.63-1.62-2.5-4.5c.5-7.37,1-14.62,1.62-22a2.68,2.68,0,0,1,.13-1c.37-1.75,1.62-2.87,3-2.75s2.37,1.25,2.5,3.13C530,222.29,529.83,223.54,529.83,224.67Z"/></g><g id="Card"><path d="M482,384.73l121.63-1.5H606c3.25.25,4.63,3.12,2.75,5.87a11.26,11.26,0,0,1-2.12,2.13c-27.5,25-55.13,49.87-82.5,74.87a16.3,16.3,0,0,1-11.38,4.63c-23,.37-45.87,1.12-68.87,1.75-31.38.75-62.63,1.62-94,2.37-22.13.63-44.25,1.13-66.38,1.63a15.63,15.63,0,0,1-2.37,0c-2.88-.25-3.88-2.38-2.25-4.75a20.93,20.93,0,0,1,1.5-1.75q35.8-39.75,71.75-79.38c2.75-3,5.37-4.37,9.5-4.37,25.37-.13,50.62-.5,76-.88,14.87-.25,29.62-.37,44.37-.62Z"/><path id="Path-Copy-2" class="cls-1" d="M473,373.73l121.63-1.5H597c3.25.25,4.63,3.12,2.75,5.87a11.26,11.26,0,0,1-2.12,2.13c-27.5,25-55.13,49.87-82.5,74.87a16.3,16.3,0,0,1-11.38,4.63c-23,.37-45.87,1.12-68.87,1.75-31.38.75-62.63,1.62-94,2.37-22.13.63-44.25,1.13-66.38,1.63a15.63,15.63,0,0,1-2.37,0c-2.88-.25-3.88-2.38-2.25-4.75a20.93,20.93,0,0,1,1.5-1.75q35.8-39.75,71.75-79.38c2.75-3,5.37-4.37,9.5-4.37,25.37-.13,50.62-.5,76-.88,14.87-.25,29.62-.37,44.37-.62Z"/><path class="cls-2" d="M391.71,464c-38.87.87-77.62,1.62-116.5,2.5a15,15,0,0,1-5.25-.75c-2.12-.75-2.5-2.5-1.25-4.38a20.47,20.47,0,0,1,1.5-1.87q37.88-41.43,75.63-82.75a9.57,9.57,0,0,1,7.5-3.13q101.81-.93,203.75-2.12c15-.12,30-.38,45-.5a10.14,10.14,0,0,1,3.37.25,3.49,3.49,0,0,1,2,2,3.6,3.6,0,0,1-1,2.62c-12.5,11.51-25.25,22.88-37.75,34.38-17,15.63-34.12,31.37-51,47.25a14.44,14.44,0,0,1-10.25,4.12c-38.5.63-77.12,1.5-115.75,2.38Zm-114.87-3.13H281c14.88-.37,29.75-.75,44.63-1l141-3c14-.25,27.87-.62,41.87-1a6.4,6.4,0,0,0,4.63-1.62q21.75-20.25,43.75-40.5a22,22,0,0,0,1.87-2.25h-3.62l-84.13.75c-49.62.38-99.25.88-148.87,1.25a4.61,4.61,0,0,0-3.75,1.88l-39.5,43.24A7.35,7.35,0,0,0,276.84,460.89Zm319.25-83.62c-.13-.25-.13-.5-.25-.63H592q-90.18.94-180.37,2c-19.25.25-38.38.38-57.63.63-1,0-2.37-.12-2.87.5-2.38,2.25-4.75,4.38-6.63,7.63H349q115.13,0,230.13.25c4.25,0,7.62-.75,10.5-4A62.27,62.27,0,0,1,596.09,377.27Z"/><path class="cls-2" d="M493,449.89h-9.87a11.66,11.66,0,0,1-3-.25,2.86,2.86,0,0,1-1.88-4.25,8.64,8.64,0,0,1,1.63-2.12c5.75-6.63,11.62-13.37,17.37-20.12a7.7,7.7,0,0,1,6.5-3c8.5,0,17-.13,25.5-.13,1.63,0,3.63-.37,4.38,1.63s-.5,3.62-1.75,4.75c-4.38,4-8.75,7.87-13.13,11.87-3.37,3-6.75,6-10.12,9.12a7,7,0,0,1-5.5,2.13c-3.38-.13-6.75,0-10.25,0A.46.46,0,0,1,493,449.89ZM486.59,444h15.12a5.83,5.83,0,0,0,4.25-1.63c5.5-5,11-9.87,16.5-14.74.5-.5.88-1.13,1.5-1.88H504.21a4.24,4.24,0,0,0-3.37,1.88c-3.25,3.75-6.5,7.49-9.88,11.24C489.59,440.39,488.34,441.89,486.59,444Z"/><path class="cls-2" d="M331.71,443.14H314.34a15.55,15.55,0,0,1-3.38-.37,2.07,2.07,0,0,1-1.62-2.63,3.5,3.5,0,0,1,1.87-2.12,6,6,0,0,1,2.63-.38c11.75-.12,23.5-.12,35.37-.12a18,18,0,0,1,2.63.25,2.56,2.56,0,0,1,2,2.5,2.34,2.34,0,0,1-1.88,2.5,15.46,15.46,0,0,1-3.37.37Z"/><path class="cls-2" d="M330.09,430.52h-9.5a5.84,5.84,0,0,1-2.63-.25,4.37,4.37,0,0,1-1.87-2.12,2.07,2.07,0,0,1,1.62-2.63,7.29,7.29,0,0,1,2.38-.37c6.75,0,13.62,0,20.37.12a7.66,7.66,0,0,1,1.63.25,2.59,2.59,0,0,1,2.25,2.63,2.38,2.38,0,0,1-2.25,2.5,20.19,20.19,0,0,1-2.75.12h-9.13A.39.39,0,0,1,330.09,430.52Z"/></g><g id="Man"><path class="cls-1" d="M171.75,770.59c-1.37-.25-2.5-.5-3.75-.75a5.7,5.7,0,0,1-5-4.87c-1.12-5.75-2.25-11.63-3.25-17.38-2.75-16.5-5.5-32.87-8.25-49.37-.12-1-.5-2-.75-3.25-.62.5-1.25.87-1.62,1.25a99.55,99.55,0,0,0-17.88,36.5c-.75,2.87-1.37,3.62-4.37,3.62a3.56,3.56,0,0,0-3.38,1.88,9.14,9.14,0,0,1-1,1.37c-3.12,3.63-4,7.5-1.87,11.88a11.87,11.87,0,0,1,1.12,4.25c.25,2.25-1,3.5-3.25,3.37a27.55,27.55,0,0,1-4.62-.87,41.6,41.6,0,0,1-21-11.88c-1.88-2-2.38-4-1.38-6.5C95,731,98,722,102.13,713.34c3.5-7.5,6.37-15.25,9.25-23,8-21.5,17.12-42.5,28.75-62.37a35.15,35.15,0,0,0,2-3.63,7.83,7.83,0,0,0,.5-2.87c-.5-11.13-1.38-22.25-1.75-33.38-.38-12.37.25-24.75,1-37.12.5-8.88.37-17.75.5-26.63.25-14.12.12-28.12.62-42.25.38-10.37,1.5-20.62,2.25-30.87,0-.38.13-.63.13-1,.62-3.75,2-4.63,5.62-3.75,4.63,1.12,9.25,2.25,14,3,10.75,1.87,21.5,1.87,32.25,1.25,6.63-.38,13.13-.5,19.75-.75h2c3.75.37,5.5,2.25,5.63,6,.5,15.12,1,30.25,1.5,45.25.37,10.5,1.12,21.12,1.12,31.62,0,7.25-.62,14.5-1.12,21.75a24.17,24.17,0,0,1-1,4.25c-2.13,6.5-4.25,13-6.75,19.25-4,10-8.25,19.88-12.5,29.88-1.25,2.87-2.38,5.87-3.5,8.87a9.82,9.82,0,0,0-.25,2.75c.5,29,1.12,57.88,1.62,86.88.38,17,.63,34.12,1,51.12,0,2.13-.25,3.88-2.37,5.25a4.64,4.64,0,0,0-2,6.13,50.65,50.65,0,0,1,1.62,6.25c.63,3-.12,4.37-3.12,4.87-4.75.75-9.5,1.25-14.13,1.75-2.12.25-4.25.5-6.37.63-3.25.25-4.88-1-5.5-4.25C172.38,775.72,172.13,773.34,171.75,770.59Z"/><path class="cls-1" d="M229.88,363.09l.75-4.12c.62-5.63,1.87-11.25,5-16.13a19.13,19.13,0,0,1,5-5.5c3-2.12,5.5-.87,6,2.75.25,1.75.12,3.63.25,5.38.12,2.25.5,4.5.62,6.75.13,2.75,1.63,4.25,4.13,5.12,11.5,4,22.75,8.38,34.37,12.13s23.13,6.37,34.75,9.62c5.63,1.63,11.38,3.25,17,5a11.59,11.59,0,0,1,2.88,1.13c2.25,1.5,2.12,4.12-.25,5.37a1.29,1.29,0,0,1-.63.25c-5.12.25-7.62,4.25-10.37,7.75-2,2.5-3,3-5.88,1.88-17-6.25-34.75-9.75-52.25-13.88-10.37-2.5-20.75-4.87-31.12-7.25a7.92,7.92,0,0,0-1.5-.25c-2,6.13-3.88,12.13-5.75,18,.25.25.37.5.62.5,12.63,3.5,25.38,7,38.13,10.38,6.5,1.75,13,3,19.62,4.5a31,31,0,0,1,12.88,5.87c2.12,1.63,2.5,3,.62,5.13s-3.87,4.12-5.87,6.25c-1.38,1.5-2.75,3-4.25,4.75,1.75,1.62,3.25,3.12,4.75,4.62,2.25,2.25,2.87,4,2,5.63-1,1.87-2.75,2.25-6.13,1.37a25.23,25.23,0,0,1-10-5c-3.25-2.75-6.5-5.62-9.75-8.5a11.25,11.25,0,0,0-5.87-3.12c-10.88-2-21.63-4.13-32.5-6-14.88-2.63-30-3.38-44.75-6.75C185,415.09,179.75,411,177,404.09c-3.12-8-5.87-16.25-8.75-24.37-.62-1.88-1.25-3.88-1.87-5.88-1.13-3.75.25-6.25,4.12-7,3.25-.62,6.5-1,9.75-1.37a230.37,230.37,0,0,1,41.5-2,67.86,67.86,0,0,0,7.13-.13C229,363.34,229.25,363.22,229.88,363.09Z"/><path class="cls-1" d="M210,249.34v12.13c-.12,6.75-1.12,7.87-7.87,8.12a18.6,18.6,0,0,1-9-1.62c-3.38-1.63-4-2.88-4-6.75,0-5.63-.13-11.38-.38-17a30.6,30.6,0,0,0-.75-4.5c-3-.88-6-1.5-7.62-4.63a15.91,15.91,0,0,1-2.13-9.5c.5-5.25,3-7.5,9.63-8.75.25-2.25.5-4.62.75-7a23.69,23.69,0,0,1,1.12-4.25c1.13-2.75,3.13-4.37,6.38-4.12,2.12.12,4.25.5,6.37.62,6.13.38,12.25.75,18.38.88,4,.12,7.87-.38,11.87-.5,4.25-.25,6.13,1.25,6.75,5.5a27,27,0,0,1,.38,4.37c-.38,6.63-.63,13.38-1.38,20-.62,5.75-3.62,10.5-7.37,14.63-2.5,2.87-6.13,3.5-9.63,3.62-2.75.13-5.62-.5-8.37-.75C212.5,250,211.75,249.72,210,249.34Z"/><path class="cls-1" d="M236.88,326.72c1.37,3.62-.63,6.87-3.38,9.87-1.5,1.63-2.87,3.5-4.5,5.13a4.84,4.84,0,0,1-4.87,1.5c-.5-.13-1.13-.25-1.63-.38-5.37-1.37-6.37-2.62-6.5-8.25-.12-4.87-.37-9.75-.5-14.62-.12-3,2.38-5.88,5.38-5.63a99.91,99.91,0,0,1,10.75,1.38c3.5.75,4.37,2,4.87,5.62C236.63,323,236.75,324.59,236.88,326.72Z"/><path d="M339.92,387.49c-1.5-.5-2.88-1.13-4.38-1.5-14.75-4.25-29-9.63-43.62-14.38-14.25-4.62-28.5-9.12-42.75-13.75-.63-.25-1.38-.37-2-.62a2.45,2.45,0,0,1-1.5-3.38c1.5-4.5.25-9,.5-14-1.75.75-2.88,1.25-4.38,1.88-.75,11.37-1.62,22.87-2.37,34.5,1.75.37,3.37.75,5.12,1.12,15.5,4,31,8.13,46.38,12.25l33.25,8.63a7.73,7.73,0,0,1,1.62.5,2.51,2.51,0,0,1,1.63,3,2.42,2.42,0,0,1-2.75,2,19.3,19.3,0,0,1-3.75-.5c-14.5-3.75-29-7.63-43.5-11.5-11.25-3-22.63-5.88-33.88-8.88-1.37-.37-2.87-.62-4.25-.87-1,2-1.62,8.87-1.37,13.87,4.12.88,8.37,1.75,12.5,2.75,11.37,2.75,22.62,5.63,34,8.5a22.75,22.75,0,0,0,4,.88c7.5.87,13.12,5.25,18.75,9.87,1.5,1.25,1.62,2.75.62,3.88s-2.37,1.37-4,.37a44,44,0,0,1-3.87-2.87A31.84,31.84,0,0,0,287,413.36c-10.75-2.37-21.37-5.37-32-7.87a499.15,499.15,0,0,0-50.87-9.38c-1.25-.12-2.5-.37-3.75-.5-2.75-.5-3.25-1.12-3.5-4-.88-8.25-1.88-16.5-2.75-25-9.13,1.13-17.88,2.63-26.75,4.63a5.71,5.71,0,0,0,0,1.5c1.87,6.5,3.5,13.25,5.75,19.62A101.4,101.4,0,0,0,180,406.74a15.72,15.72,0,0,0,8.63,7.37,76.81,76.81,0,0,0,17.5,4c17.75,2.38,35.5,4.88,53.25,7.25,3.75.5,7.37,1,11.12,1.38a8,8,0,0,1,4.38,2.37,157,157,0,0,0,11.87,10.63c3.63,2.87,8,3.75,12.63,3.62,0-1.5-1.13-2-2-2.62-1.5-1.13-3.13-2.25-4.75-3.38s-2-2.87-1.25-4.12,2.5-1.63,4.25-.5a48.74,48.74,0,0,1,7.5,5.87,12.41,12.41,0,0,1,2.75,4.63,4.08,4.08,0,0,1-3.75,5.62c-7,.63-13.63-.37-19.38-4.87-3.87-3.13-7.62-6.5-11.25-9.88a6.29,6.29,0,0,0-3.37-2c-10.38-1.37-20.75-2.87-31-4.25a3.39,3.39,0,0,0-1,.13c-.13,5-.63,10,0,15.12,1,6.75.25,7.88-6.38,9.38a56.89,56.89,0,0,1-8.12,1.12c-15.13.75-30.25,1.75-45.25.13-8.13-.88-16.25-2-24.25-3.38a31.32,31.32,0,0,1-8.88-3.25c-4.75-2.37-5.62-4.12-4.75-9.25,1.63-9.87,3.38-19.75,5-29.5,1.63-10.25,3.25-20.37,4.88-30.62.37-2.38.25-4.75.5-7.25-2.38-.75-4.75-1.38-6.88-2.25-3-1.13-3.87-2.88-3.37-5.88,2.5-13.25,4.62-26.62,7.5-39.87,2.25-10.25,5.25-20.25,8-30.25.37-1.38,1-2.75,1.5-4.13a35.54,35.54,0,0,1,16.62-20c4.25-2.37,8.5-4.62,13.25-7.25,1.13-4.87.88-10.62.63-16.25a2.71,2.71,0,0,0-2.38-2.75c-3.87-.75-6.62-3.12-8.62-6.62-2.63-4.5-2.63-9,.12-13.25a9.57,9.57,0,0,0,1.5-6,44.74,44.74,0,0,1,2.63-18.13c5.37-14.5,14-20,27.37-20.75a64.63,64.63,0,0,1,21.88,2.75c12,3.5,15.75,13.75,16.62,22.63a4.81,4.81,0,0,1,0,1.37c-2.25,6.88-1.12,14.25-2.25,21.25-.62,3.88-1,7.88-2,11.75-2.12,9-7.37,15.13-16.5,17.75a6.22,6.22,0,0,1-.87.38c3.25.5,6.37,1.12,9.5,1.62a21.69,21.69,0,0,1,14.62,10.25,38.43,38.43,0,0,1,5.38,16.75c1.75,14.88,2.75,29.88,1.62,44.88-.25,2.75-.37,5.5-2.37,7.62a3.34,3.34,0,0,0-.63,1.88v15l3.75,1.25c23.88,7.87,47.88,15.75,71.75,23.62,3.38,1.13,6.75,2,10.13,3.13,2.25.75,4.5,1.62,6.62,2.5a9.85,9.85,0,0,1,2.88,1.75c3.37,2.62,3,6.37-1.13,7.5s-8.25,1.12-12.37,1.5a2.29,2.29,0,0,1-2.5-2.63,2.65,2.65,0,0,1,2.5-2.75c2.12-.25,4.25-.37,6.37-.62A1.8,1.8,0,0,0,339.92,387.49ZM194,203.11c-.25,1.13-.5,1.88-.62,2.75-.63,3.75-1.38,7.63-1.88,11.38a6.26,6.26,0,0,1-2.5,4.25c-1.25,1.12-2.5.12-3.75-.25a3.08,3.08,0,0,0-2.5.5,7.34,7.34,0,0,0-2.25,10.62,7.48,7.48,0,0,0,5.88,3.63c3.62.37,4.37,1.12,5.12,4.75a12.55,12.55,0,0,1,.5,3c-.12,5.5-.25,11.12-.5,16.62,0,1.25-.25,2.5-.37,3.88,6.12,2.5,12,4.25,18.25,1.75-.25-4.88-.5-9.38-.75-13.88-.75-.5-1.75-.75-2.25-1.5a3.87,3.87,0,0,1-.75-2.75,3.6,3.6,0,0,1,2.25-1.75c.62-.25,1.5.13,2.25.38,2.12.62,4.12,1.37,6.12,1.87a14.46,14.46,0,0,0,13.38-3c3.75-3.12,5.62-7.37,6.5-12a175.1,175.1,0,0,0,2.5-26.75,10.79,10.79,0,0,0-.5-1.87C223.42,206.11,208.79,203,194,203.11Zm23.5,114.38c.25,6.25.38,12,.63,17.75a3.06,3.06,0,0,0,1.37,2.12c2.13,1.38,4.5,2.5,6.25,3.5,2.88-2.75,5.5-5,8-7.5a3.31,3.31,0,0,0,.88-2.37c-.63-4.5-1.25-8.88-2-13.5Z"/><path d="M148.06,707.58c-.5,1-1.12,1.87-1.62,2.87-4,8.13-8,16.38-12,24.5-2.38,4.75-3.25,5.38-8.5,4.38a41.92,41.92,0,0,1-8.75-2.63,81.35,81.35,0,0,1-18.13-11.25c-3.5-3-3.75-3.75-2-8.25,3.75-9.12,7.75-18.12,11.63-27.25,2.12-4.87,4.25-9.75,6.25-14.75,7.62-18.25,15.12-36.5,22.75-54.75a14.53,14.53,0,0,0,1.12-5.62c-.37-16.25-1.25-32.5-1.12-48.75.12-25,.5-50,1.37-75,.5-13.75,2.13-27.38,3.25-41.13a3,3,0,0,1,.5-1.87c.75-.75,1.75-1.63,2.63-1.63,1.37-.12,2.25,1,2.25,2.5s-.13,3.13-.25,4.75c-2.25,23.63-4,47.38-4,71.13,0,20.87-.38,41.87.12,62.75.5,20.62,1.38,41.37,2.88,62a528.64,528.64,0,0,0,7.62,56c2.75,15.12,5.25,30.25,8,45.25,1,5.62,2.38,11.25,3.75,17.25a108.41,108.41,0,0,0,35.75-4.88v-3.75q-1.12-133.68-2.37-267.25v-2.37c.12-2.38,1.12-3.63,2.62-3.75,1.75-.13,2.75,1.25,3,3.87a25.12,25.12,0,0,1,0,3.13c.25,35.75.63,71.62.88,107.37V605a24.06,24.06,0,0,0,1.37-2.12c3.38-8.75,6.63-17.63,10-26.38a94.61,94.61,0,0,0,6.88-33.25c.37-17.62.62-35.25.62-52.87,0-11-.62-22-.87-33a12.17,12.17,0,0,1,.25-3,2.15,2.15,0,0,1,2.5-1.88,3.71,3.71,0,0,1,2.25,1.63,4.71,4.71,0,0,1,.5,2.62c.75,29.63,1.87,59.25.12,89a104.3,104.3,0,0,1-7.37,33.13c-3.88,9.87-7.38,19.75-11.13,29.62a26.85,26.85,0,0,1-1.75,4.38c-2.87,5.5-3.37,11.25-3.37,17.37q.75,65.25,1.25,130.5c0,2,.12,4.13,0,6.13-.25,2.75-1.38,3.37-4.13,2.75a5.71,5.71,0,0,0-3.25,0c-11.5,3.37-23.25,4-35,4.5-2.5.12-3.25-.5-3.87-3.25-1.63-7.5-3.5-15-4.88-22.63-2.5-13.37-4.75-26.87-7-40.25C148.56,707.7,148.31,707.7,148.06,707.58ZM128.69,734.2c1.62-3.5,3-6.5,4.5-9.37,3.87-7.88,7.75-15.88,12-23.75a10.46,10.46,0,0,0,1.37-7,527.93,527.93,0,0,1-6.5-55.75c-.12-2-.37-4-.5-6h-.5q-18.56,43.88-37.25,88.25C109.94,726.58,118.06,732.58,128.69,734.2Z"/><path d="M93.42,741.49c7.87,3.75,15.37,7.25,22.87,10.75.38.12.75.25,1.75.62-2.12-3.62-.62-6.62.75-9.62.88-1.88,1.63-3.75,2.38-5.63a3.22,3.22,0,0,1,.37-1c.75-1.75,2-2.5,3.38-2.12s2.25,1.87,1.75,3.87a44.88,44.88,0,0,1-2.13,5.75c-2.25,5.13-2.25,5.13,1.63,9.38,7,7.5,14,15,20.87,22.5a13.82,13.82,0,0,1,2.13,2.62,3,3,0,0,1-2.38,4.75,11.35,11.35,0,0,1-3.62-.37A161.34,161.34,0,0,1,117,774.24c-9.37-4-18.62-8.25-28-12.5a39.94,39.94,0,0,1-3.87-2.13c-3-1.87-3.75-3.87-2.75-7.25a33.39,33.39,0,0,1,1.75-4.5C88,740.24,92,732.49,96,724.86c1.5-2.75,3.13-3.5,4.75-2.5s1.5,2.63.13,5.13c-2,3.62-4,7.12-5.88,10.75A13.17,13.17,0,0,0,93.42,741.49Z"/><path d="M174.17,780.11c9-.5,17.5-1.12,26.37-1.62-.5-3-.87-5.88-1.25-8.75-.12-.5-.25-1.13-.37-1.63-.25-2,.37-3.12,1.75-3.62s3,.37,3.5,2.37c.62,2.25.87,4.63,1.37,7a22.32,22.32,0,0,1,.63,4,4.63,4.63,0,0,0,2.62,4c3.88,2,7.75,3.88,11.63,5.75,3.62,1.75,7.37,3.5,11,5.25a14,14,0,0,1,1.75,1.13,3.88,3.88,0,0,1,1.75,4.12,3.75,3.75,0,0,1-3.13,2.75,7.27,7.27,0,0,1-2.37.38c-6,0-12,.25-18-.25-11.75-.88-23.5-2-35.25-3.13-5.38-.5-7-1.87-7.63-7.25a55.39,55.39,0,0,1-.25-6.5c0-3.37.25-6.75.25-10.25a8,8,0,0,1,.13-1.75,2.66,2.66,0,0,1,2.5-2.37,2.48,2.48,0,0,1,2.62,2.12,12.17,12.17,0,0,1,.25,3C174.17,776.74,174.17,778.36,174.17,780.11Z"/><path d="M224.29,230.24c-3-3.75-3.12-7.88-2.37-12.13.37-2.12,1.5-3.25,2.87-3.12s2.5,1.37,2.5,3.37c0,.88-.12,1.88-.12,2.75a7.24,7.24,0,0,0,2,6.25c1.37,1.38,2.25,3,1.25,4.88a7.82,7.82,0,0,1-5.63,4,2.57,2.57,0,0,1-2.5-3.75C222.79,231.86,223.54,231.24,224.29,230.24Z"/><path d="M221.29,244.36a7.82,7.82,0,0,1-6.5-3.75,9,9,0,0,1-1.12-2.5,2.63,2.63,0,0,1,1.62-3.37,2.52,2.52,0,0,1,3.25,1.25,4.72,4.72,0,0,0,3.88,2.87c2.5.38,3.37,1.5,3.25,3.13S224.17,244.36,221.29,244.36Z"/><path d="M216.17,220.24c0,2.87-1.13,4.5-3.13,4.25s-2.87-2.13-2.37-4.88c.37-2,1.5-3.25,3-3.12S216.17,217.86,216.17,220.24Z"/><path d="M230.79,223.49c-.12-2.38,1-3.88,2.75-3.88s2.75,1.25,2.75,3.13c.13,2.25-1.12,3.87-2.75,3.87S230.79,225.49,230.79,223.49Z"/></g><g id="Pin-Window"><path d="M878.37,344.37q-95.8,1.13-191.5,2.38c-9.25.12-18.37.25-27.62.5-4.63.12-6-1.63-4.88-6,7.63-32.63,15.38-65.25,23-97.75q21.57-92.07,43.25-184c1.63-6.75,1.5-6.75,8.5-6.88Q858.32,51.5,987.5,50.5L1165.12,49h1c3.88,0,4.88,1.25,4,5-4.87,21.12-9.87,42.25-14.75,63.37q-23.05,98.07-46,196.25c-1.62,7-3.25,13.88-4.87,20.88a.44.44,0,0,1-.13.37c-1.5,6.25-2.12,6.75-8.5,6.88q-99.18,1.13-198.37,2.37c-6.38.13-12.75,0-19.13,0Z"/><path id="Path-Copy" class="cls-2" d="M848.37,314.37q-95.8,1.13-191.5,2.38c-9.25.12-18.37.25-27.62.5-4.63.12-6-1.63-4.88-6,7.63-32.63,15.38-65.25,23-97.75q21.57-92.07,43.25-184c1.63-6.75,1.5-6.75,8.5-6.88Q828.32,21.5,957.5,20.5L1135.12,19h1c3.88,0,4.88,1.25,4,5-4.87,21.12-9.87,42.25-14.75,63.37q-23.05,98.07-46,196.25c-1.62,7-3.25,13.88-4.87,20.88a.44.44,0,0,1-.13.37c-1.5,6.25-2.12,6.75-8.5,6.88q-99.18,1.13-198.37,2.37c-6.38.13-12.75,0-19.13,0Z"/><path class="cls-1" d="M908.91,54q93.2-1.12,186.5-2.13h2.75c4,0,5.38,1.5,5.13,5.38a10,10,0,0,1-.63,2.62c-4.25,15.75-8.5,31.63-12.75,47.38-.12.62-.37,1.37-.5,2a3.8,3.8,0,0,1-4,3c-2.37,0-4.75-.13-7.12-.13L929.66,114l-219.87,2.62c-1.88,0-3.88.13-5.75,0-2.13-.12-3.13-1.12-3.13-3.25a20.64,20.64,0,0,1,.5-4c3.88-15.87,7.88-31.75,11.75-47.62,1.25-5,1.88-5.5,7-5.5q77.63-.95,155.13-1.75c11.25-.13,22.5,0,33.75,0A.92.92,0,0,1,908.91,54Z"/><path d="M901.55,101.85l-174.13,1.87a21.17,21.17,0,0,1-2.75-.12,2.65,2.65,0,0,1-2.75-2.5c-.12-1.5.88-2.63,2.75-2.88a25.08,25.08,0,0,1,3-.12c50.5-.5,101.13-1,151.63-1.63q97.88-1.12,195.62-2.12c1.38,0,2.75-.13,4.13,0a2.63,2.63,0,0,1,2.62,2.62,2.58,2.58,0,0,1-2.25,2.63,19.37,19.37,0,0,1-2.75.25l-139.37,1.5c-11.88.12-23.88,0-35.75,0Z"/><path d="M882.05,79.1a46.54,46.54,0,0,1-4.38-2.25c-1.87-1-2.5-2.38-1.87-3.88s2-1.87,4.12-1.12c1.13.37,2.25.87,3.63,1.37.12-.87.25-1.62.37-2.37.38-1.88,1.38-3,2.75-2.88a2.74,2.74,0,0,1,2.63,2.63c.12.62.25,1.25.37,2.37,1.25-.75,2.13-1.25,3.13-1.87,2.25-1.38,3.87-1.25,4.75.25s.25,3-1.88,4.5c-1,.75-2,1.37-3.37,2.37l4.37,2.38a21,21,0,0,1,2.38,1.25c1.87,1.12,2.37,2.5,1.62,3.87s-2.25,1.88-4.12,1.13c-1.13-.5-2.25-1.13-3.38-1.75s-2-.88-3.25-1.5c-.37,2.37.5,5.37-2.75,5.62-2.87.25-2.87-2.37-3.37-4.5A36.56,36.56,0,0,1,880.67,87a2.75,2.75,0,0,1-3.87-.75,2.91,2.91,0,0,1,.87-4.12A40.49,40.49,0,0,0,882.05,79.1Z"/><path d="M740.3,80.35c-1.5-1.25-2.75-2.13-3.75-3.13a2.83,2.83,0,0,1-.38-4c1-1.12,2.25-1.25,4-.12a23,23,0,0,1,2.75,2c.38-1.13.63-2.13,1-3,.63-1.75,1.88-2.63,3.38-2.25s2.12,1.5,2.12,3.12c0,.63-.12,1.38-.25,2.5,1.5-.75,2.63-1.37,3.75-1.87,1.75-.75,3.25-.25,3.88,1s.25,2.75-1.25,3.75c-1.13.87-2.5,1.5-3.88,2.37,1.25.88,2.25,1.63,3.25,2.38,1.63,1.37,2,3.12,1.13,4.5s-2.63,1.37-4.5,0c-.88-.63-1.88-1.25-2.75-1.88a9.84,9.84,0,0,0-1.13-.25,24.07,24.07,0,0,1-.5,3c-.37,2.13-1.37,3.25-3,3.13a2.88,2.88,0,0,1-2.62-3c0-.5-.13-.88-.13-1.75-1.12.75-2.12,1.25-3,1.75A14.5,14.5,0,0,1,736.05,90a2.64,2.64,0,0,1-3.63-.87,2.6,2.6,0,0,1,.63-3.63c1.25-1,2.62-1.75,3.87-2.75A39.55,39.55,0,0,1,740.3,80.35Z"/><path d="M790.8,84.47c0,1.75.12,3,0,4.25-.13,2-1.38,3.13-2.88,3.13s-2.37-1.13-2.62-3c-.13-.88-.13-1.75-.25-3a21.22,21.22,0,0,1-3.13,1.75,2.6,2.6,0,0,1-3.37-.88,2.36,2.36,0,0,1,.37-3.37c1.25-1.13,2.63-2.13,4.13-3.38-1-.62-1.88-1.12-2.63-1.62-1.75-1.13-2.37-2.5-1.75-3.88s2-1.75,3.75-1.25c.75.25,1.5.5,2.38.75.5-1.75.12-4,2.62-4.25,3-.12,2.88,2.5,3.75,4.75,1.63-1.25,3-2.5,4.38-3.5,1.62-1.25,2.87-1.25,4-.12s1.12,2.75-.38,4.25-3.25,2.87-5,4.37a18.81,18.81,0,0,0,1.75,1.38c1.13.75,2.38,1.37,3.5,2.25,1.63,1.12,2,2.5,1.25,3.75-.87,1.5-2.25,1.75-4.12.87S792.92,85.72,790.8,84.47Z"/><path d="M838.92,82.72c-.5,2-.37,3.88-2.62,4.38s-3-1.13-3.75-3c-1.38,1-2.5,1.87-3.75,2.75-1.88,1.37-3.5,1.37-4.5,0s-.75-2.88,1.12-4.38c1.38-1.12,2.88-2.25,4.63-3.62-1.5-.63-2.5-1-3.63-1.5-1.75-.88-2.5-2.13-2-3.5s1.75-2.13,3.63-1.75c1.25.25,2.62.75,4.12,1.12a23.13,23.13,0,0,0,.13-2.87,2.47,2.47,0,0,1,2.37-2.5,2.6,2.6,0,0,1,2.88,2,28,28,0,0,1,.62,3.62c.75-.37,1.38-.62,2-.87a19.62,19.62,0,0,1,2.75-1.38,2.71,2.71,0,0,1,2.63,4.63c-.88.75-1.88,1.25-3.13,2.25,1.38.62,2.25,1.12,3.25,1.5,2.25.87,3,2.12,2.5,3.75s-2.25,2.37-4.5,1.62C842.05,84.22,840.67,83.47,838.92,82.72Z"/><path d="M781.1,194.21H690.47c-5.62,0-7.5-2.38-6.12-8,1.5-6.13,3-12.13,4.37-18.25l4.88-19.88c1.12-4.37,2.12-5.12,6.62-5.25q91.32-.56,182.75-1h2.38a3.32,3.32,0,0,1,3.25,3.63,12.55,12.55,0,0,1-.5,3c-3,12.87-6.13,25.87-9.25,38.75a8.38,8.38,0,0,1-.5,1.62c-1,3.38-1.75,4-5.25,4-5.13.13-10.25.13-15.38.13C832.1,193,781.1,193.83,781.1,194.21Z"/><path d="M1041.29,235.67h3.62c4.63-.13,6.38,1.62,5.88,6.12-1,8.63-2,17.13-3,25.75-.25,2.5-.5,5-.88,7.5-.37,2.75-1.5,3.75-4.25,4-13.12.75-26.37,1.5-39.5,2.13-3.75.25-4.75-.88-4.25-4.63,1.5-11.75,3.25-23.37,4.88-35.12a4,4,0,0,1,2.75-3.5c9.75-4.38,19.37-8.88,29.12-13.38a5.54,5.54,0,0,1,1.88-.62c2.75-.5,4.62,1.25,4.5,4,0,1.37-.38,2.75-.5,4.12C1041.41,232.92,1041.41,234.17,1041.29,235.67Zm3.87,5.5c-12.37.62-24.25,1.12-36.12,2-1.5,10.87-3,21.37-4.5,32.25,12.5-.75,24.62-1.38,36.87-2.13.25-1.87.38-3.37.63-5a14.89,14.89,0,0,0-1.63-.37c-2,0-4.12.25-6.12.12-3-.12-4.13-1.37-4.13-4.25a36,36,0,0,1,.5-6.37c.75-4.63,2.38-5.88,7.13-6h6.12C1044.41,247.92,1044.66,244.79,1045.16,241.17Zm-21.37-5.25c0,.25.12.5.12.75,3.88-.25,7.75-.38,11.75-.63v-5.62C1031.41,232.29,1027.54,234.17,1023.79,235.92Zm12,26.37h7c.25-1.75.37-3.25.62-5h-6.87A29.14,29.14,0,0,0,1035.79,262.29Z"/><path d="M710.79,249.67c10.5.25,20.87.37,31.37.62a4.53,4.53,0,0,1,2.63.5c.75.63,1.75,1.75,1.62,2.63s-1.12,1.87-2,2.37a7.82,7.82,0,0,1-3,.25c-16.25-.37-32.5-.87-48.75-1.25-4.12-.12-8.12-.12-12.25-.25a10.82,10.82,0,0,1-3.37-.62,2.4,2.4,0,0,1-1.63-2.75,2.53,2.53,0,0,1,2.25-2.25,10.28,10.28,0,0,1,2,0c10.38.25,20.63.5,31,.62C710.91,249.54,710.91,249.54,710.79,249.67Z"/><path d="M709,264.42h30a11.7,11.7,0,0,1,3,.25,2.46,2.46,0,0,1,2,2.5,2.36,2.36,0,0,1-1.88,2.5,9.79,9.79,0,0,1-2.75.25c-20.37-.13-40.62-.38-61-.5a14.49,14.49,0,0,1-2.37-.13,2.45,2.45,0,0,1-2.25-2.5,2.48,2.48,0,0,1,2.25-2.62,15.31,15.31,0,0,1,3.37-.25H709Z"/><path d="M693.91,283.42H675.54a6.85,6.85,0,0,1-3.25-.63,3.14,3.14,0,0,1-1.38-2.37,3.54,3.54,0,0,1,1.63-2.25,6,6,0,0,1,2.62-.38c12.75.13,25.38.25,38.13.5a4.23,4.23,0,0,1,2.25.38c.75.62,1.75,1.75,1.75,2.62s-1.13,2-2,2.38-2.25.25-3.38.25h-18Z"/></g><path id="Cylinder" d="M1075.38,635.56l-.75,164.63a11.34,11.34,0,0,1-1,4.5c-2.63,6.37-7.13,11.25-12.38,15.62-9.25,7.5-20,12.5-31,16.75a257.46,257.46,0,0,1-50,12.88,426.91,426.91,0,0,1-78.75,5.5c-29.62-.63-58.87-3.75-87.62-11.5-11.38-3.13-22.63-6.75-33.13-12.38a118.77,118.77,0,0,1-15.12-9.75,45.36,45.36,0,0,1-8-8.25A26.4,26.4,0,0,1,752,796.44q.19-97.32.13-194.63,0-60.37.12-120.62c0-2.25,0-4.5-.12-6.88-.5-6.5,1.62-12,5.37-17.12a47.73,47.73,0,0,1,12-11.5c10.25-7.38,21.75-12.25,33.63-16.25,17.75-6,35.87-9.75,54.37-12.38a430.65,430.65,0,0,1,67.13-4c30.12.5,59.87,3.75,89,11.5,12.62,3.38,24.87,7.75,36.37,14.13a70.1,70.1,0,0,1,16.63,12.37c4.87,5,7.5,11,9.25,17.63a15.23,15.23,0,0,1,.12,4.12q-.37,81.37-.62,162.75Zm-5-150c-.75.63-1.13.88-1.38,1.13-4.75,5.87-10.75,10.37-17.25,14.25a141.47,141.47,0,0,1-29.25,12.87c-28.12,9.13-57.25,13.25-86.75,15a451.14,451.14,0,0,1-58.25-.5,360.15,360.15,0,0,1-58.87-9c-14.13-3.5-27.88-8-40.75-15-7-3.87-13.5-8.37-18.88-14.37a13.8,13.8,0,0,0-1.37-.88v3.5q-.2,151.7-.25,303.38a38.77,38.77,0,0,0,.37,5.37c.88,5.13,3.75,9.25,7.25,12.88,5.25,5.37,11.63,9.37,18.38,12.75,12.5,6.25,25.62,10.37,39.12,13.62,23.13,5.5,46.75,8.13,70.5,9.13,33.5,1.25,66.75-.88,99.63-7.63,16.12-3.37,32-7.87,47-14.87a79,79,0,0,0,19.5-12.25c3.5-3.13,6.62-6.5,8.5-10.88a13.31,13.31,0,0,0,1.12-4.87q.75-154.87,1.38-309.88A17.71,17.71,0,0,0,1070.38,485.56Zm-161.63,38.5c29.63-.25,57-2.37,84.13-8.12,16.12-3.38,32-7.88,46.87-14.88,6.88-3.25,13.63-6.87,19.25-12.12a45.68,45.68,0,0,0,7.5-8.75c4.38-6.63,4.25-13.63-.12-20.13a44,44,0,0,0-7.13-8.12c-5-4.63-10.87-7.88-16.87-10.88a169.1,169.1,0,0,0-32.63-11.62c-28.62-7.5-57.87-10.25-87.37-10.75a417.69,417.69,0,0,0-78,6c-16.88,3-33.5,7.12-49.5,13.62-8.5,3.5-16.75,7.63-24.13,13.25-4.12,3.25-8,6.88-10.5,11.5-3.62,6.38-3.62,12.88.13,19.13a42.94,42.94,0,0,0,7.25,8.5c5,4.75,11,8,17.12,11,12.13,5.87,24.88,9.87,37.88,13C851.63,521.44,881,523.94,908.75,524.06Z"/><g id="Woman"><path class="cls-1" d="M861.62,370.52c.25-.75.37-1,.25-1.25-1.25-6.25-2.25-12.5-3.75-18.62C855.62,340,852.74,329.52,850,319c-.87-3.5-1.62-7.12-2.37-10.62-.25-1.38-1.25-1.75-2.25-2.25-6.63-3.38-13.38-6.88-20-10.25-2-1-4-2.13-6-3.25a42.61,42.61,0,0,1-13.88-12.37c-4.25-6.13-8.5-12.38-12.5-18.75-6.25-9.75-12.25-19.63-18.37-29.5-2.88-4.5-5.38-9.25-6.38-14.63a7.57,7.57,0,0,1-.25-1.62c.38-3.63-.25-6.75-3.87-8.88-2-1.12-2.13-3.37-.63-5.37a48.9,48.9,0,0,1,5.88-6.63,4.61,4.61,0,0,0,1.62-4.75c-.75-4.38-1.25-8.75-1.87-13.13a19.67,19.67,0,0,0-.88-2.87c-.5-2,.13-3.5,1.63-4s2.75.25,3.62,2.25c2.5,6,5,12,7.5,17.87,5.75,13.76,11.75,27.38,20.13,39.76,6.62,9.75,13,19.75,21.12,28.37a104.38,104.38,0,0,0,10.38,9.38c5.75,4.62,11.75,8.87,17.75,13.25,2.25,1.62,4.75,3.12,7.12,4.62,1.75,1.13,3.5,2.13,3.5,4.75,2.5.37,4.88.87,7.13,1.12,1.37.25,2.75.38,4,.5,8.62.75,13.75,5.75,17.12,13.25a67.57,67.57,0,0,1,5.38,21c.87,8,1.25,16.13,2.37,24.13q2.07,14.43,4.88,28.87a68.34,68.34,0,0,1-1.75,34.38c-3.75,11.87-11.13,20-23.25,23.75-10.38,3.25-21.13,5.37-31.75,7.62-6.63,1.5-13.25,3.38-19.88,4.38-15.12,2.25-30.37,4.12-45.75,2.75-3.75-.38-7.5-.5-11.25-.75a14.51,14.51,0,0,1-11.87-7c-6.75-10.5-13.63-21-20.13-31.63-3.87-6.37-7.37-13-11-19.62a8.83,8.83,0,0,0-.62-1.13c-4.38-4.12-3.13-8.87-.63-13a69.08,69.08,0,0,1,9-11.87c4.5-4.88,9.63-9.38,14.25-14.13,3.38-3.5,6.75-7.12,10-10.62,3.75-4,7.38-8,11.13-12a23,23,0,0,1,3.25-2.88c6.62-5.12,13.25-4.12,17.75,2.88,1.62,2.62,3.12,5.25,4.5,8,5.5,10.87,13,20.5,19.5,30.75.5.75,1.12,1.37,1.62,2.12a3.71,3.71,0,0,0,3.75,1.75,39.63,39.63,0,0,1,5.5-.25c4.5-.12,9.13-.37,13.63-.25A237,237,0,0,0,861.62,370.52Z"/><path class="cls-1" d="M879.24,290.27h-1.37c-4.38-.25-5.88-2.74-4-6.62a6.68,6.68,0,0,0,.75-4.87c-1.63-5.13-3.25-10.13-4.75-15.25-.75-2.75-2.5-3.63-5.25-4a36,36,0,0,1-8-1.63,12.57,12.57,0,0,1-8.5-10.62c-.38-2.63-.63-5.25-.75-7.75l-.75-10.88c-.13-2.5.5-4.5,3-5.5a3.67,3.67,0,0,0,2.5-3,.46.46,0,0,1,.12-.37c3.13-8.38,9.88-11.75,18.75-9,6.75,2,11.63,6.62,15.25,12.37a53.4,53.4,0,0,1,8.13,23.63,107,107,0,0,1,.62,10.87,45.35,45.35,0,0,0,3.25,16.25,56.77,56.77,0,0,1,2.13,6.5c.62,2.38-.13,4.13-2.38,5C891.87,287.65,885.74,289.9,879.24,290.27Z"/><path class="cls-1" d="M721.37,586.52V579c0-1.87-.63-3.37-2.38-4.12-4.37-2.13-5.25-5.5-4.25-9.88s1.63-8.87,2.5-13.37c.5-2.75,1.13-2.75,4-3.38,4.25-.87,8,.63,12,1.63,4.5,1.25,9,2.37,13.5,3.62a21.62,21.62,0,0,1,2.63.75c3.25,1.13,4.62,3.25,4.5,6.75a5,5,0,0,1-.13,1.38c-.75,3.62-1.62,7.37-2.37,11-.63,2.75-1.88,4.87-4.63,5.87a3.49,3.49,0,0,0-2.37,3.38c-.63,5.62-1.38,11.25-2,16.87-.5,5.25-.88,10.63-1.25,16a5.85,5.85,0,0,1-3,5c-2.63,1.63-5.13,3.38-7.88,4.75-7.37,4-14.87,7.88-22.25,11.75a9.29,9.29,0,0,1-3.5,1.38,5.42,5.42,0,0,1-3.37-1,2.78,2.78,0,0,1-.5-3.5,14.34,14.34,0,0,1,1.87-2.88,160.84,160.84,0,0,0,14.75-20.87,18.53,18.53,0,0,0,2.5-6.63c.88-5.62,1.25-11.25,1.88-16.87A.37.37,0,0,1,721.37,586.52Z"/><path class="cls-1" d="M689.62,562.65c-5.5-1.13-10.88-2.13-16.25-3.38-5-1.12-9.88-2.62-14.75-4a13.63,13.63,0,0,1-3.75-1.5,3,3,0,0,1,0-5.12A5.28,5.28,0,0,1,656,548c9.25-4.5,18.5-9.25,28.38-12.25a4,4,0,0,0,2.25-1.75c2.25-4.37,4.5-8.87,6.62-13.37a2.75,2.75,0,0,0-.75-3.63c-1.5-1.37-2.87-2.87-4.37-4.25a7.22,7.22,0,0,1-2-8.37,98.73,98.73,0,0,1,5.37-11,3.69,3.69,0,0,1,3-1.63,33.92,33.92,0,0,1,8.63,1.63c5.25,2,10.37,4.5,15.62,6.87,5.88,2.75,7.5,5.63,5.88,12a63.77,63.77,0,0,1-4.25,11.13,72.92,72.92,0,0,1-5.75,10c-5.88,8.62-12,17.12-17.88,25.75C694.87,561.15,692.87,562.9,689.62,562.65Z"/><path class="cls-3" d="M883.33,338.54c-4.5,0-8.87-.12-13.12,0a43.3,43.3,0,0,1-17.38-2.75c-5.25-2-6.5-4-6-9.5a77.35,77.35,0,0,1,3-16.75c3-9.62,8.75-17.37,16.13-24a3.12,3.12,0,0,1,4.25-.5,7.53,7.53,0,0,0,4,1.25,29,29,0,0,0,15.5-3c2.62-1.25,5.25-2.62,7.87-4.12,3.13-1.63,5.88-1.38,8.38,1.12a7,7,0,0,1,.87,1c14,16.25,25.63,34.13,32.63,54.63a124.42,124.42,0,0,1,5.87,26.87c1.38,13.63,2.5,27.38,3.63,41,.25,3.38-.63,4.63-4,5-11.13,1.25-21.75,4.25-32.63,6.63-4.12.87-8.5.75-12.87,1a2.29,2.29,0,0,1-2.38-3c3-11.63-.62-22.75-3.12-33.75-1.63-7.25-3.75-14.5-5.63-21.75-1.5-5.88-2.87-11.63-4.37-17.5C883.83,339.79,883.46,339.17,883.33,338.54Z"/><path d="M820,407.42c1.37,4.5.37,6-4.25,5.37-3.5-.5-4.88,1.63-6.63,4a38.52,38.52,0,0,1,5.5-1.62,8.83,8.83,0,0,1,4,.37,2.53,2.53,0,0,1,1.88,2.88c-.25,1.37-1.25,2.5-2.63,2.12-4.37-.87-5.87,2.38-7.87,5.13.37.12.62.25.75.12,2.75-2.25,5.75-2.25,9-1.5a9.65,9.65,0,0,0,9.5-2.62,5.13,5.13,0,0,1,5.25-1.5c5.12,1.12,10.12,2.37,15.37,3.25,6.63,1,13.25,1.87,19.88,2.5a26.82,26.82,0,0,0,11.75-1.25,15.78,15.78,0,0,0,9.75-9.38c2.37-6.12,2.12-12.25.87-18.5-3-15.25-6.25-30.5-9.5-45.75-.62-2.87-1.25-5.75-1.75-8.62a8.3,8.3,0,0,1-.12-3,3.49,3.49,0,0,1,2-2,2.74,2.74,0,0,1,2.37.87,5.93,5.93,0,0,1,1.13,2.38c3.62,17.12,7.25,34.25,10.75,51.37,1.37,7,2.37,14.13.75,21.25-.13.25,0,.63.12,1.25,1.75,0,3.38.13,5,0a141.12,141.12,0,0,0,38-7.37c3.5-1.25,5.5-1,6.63,3.75,1.75,7.62,3.12,15.37,4.25,23.12a55.56,55.56,0,0,1,.37,13.63c-1.5,13-8.75,22.37-19.62,29.25-8,5.12-16.88,8.37-26,10.87-10.63,3-21.63,3.38-32.5,3-11.63-.37-23.38-1.25-35-2.37-8.75-.88-17.5-2.38-26.25-3.75-10.38-1.63-20.88-3.25-31.25-4.88a13.52,13.52,0,0,0-2.38-.12c-6.25,24.75-15.5,48.37-23.5,72.75,2.63,1.75,2.88,4.5,2.38,7.25-1.13,6.5-2.5,12.87-3.88,19.37-.62,2.88-2.87,3.88-5.75,4.38-.12,2.75-.37,5.5-.37,8.12a204.8,204.8,0,0,1-1.5,21.38c-.75,5.75-3.13,9.87-8.38,12.75-11.75,6.25-23.5,12.37-35.87,17.25a24.63,24.63,0,0,1-4.88,1.5c-3.25.62-5.12-1.75-3.87-4.75a14.61,14.61,0,0,1,2.12-3.5c4.5-6.25,8.88-12.63,13.63-18.75,3.75-4.88,6.12-10,6.5-16.13.5-7.87,1.37-15.87,2-23.75-1.38-.62-2.38-1.12-3.5-1.62a5.58,5.58,0,0,1-3.63-6c.38-4.13.88-8.13,1.38-12.13.37-2.5.87-4.87,1.25-7.37.25-1,.25-2.13.87-2.88,1.75-2.37,1.38-5.12,1.25-8-.5.63-1,1.38-1.5,2-4.25,6.25-8.37,12.38-12.62,18.63-2.5,3.62-5.63,4.62-10,3.75C680.71,561.79,670,560,659.46,558a42.51,42.51,0,0,1-7.75-2.37,9,9,0,0,1-3.38-2.25,3.83,3.83,0,0,1,.25-6,17.36,17.36,0,0,1,4.5-2.38c7.13-2.62,14.25-5.12,21.5-7.5a16.22,16.22,0,0,0,9.75-8.37c2-4,4.13-8,6.38-12.13-1.75-1.37-3.38-2.62-4.88-3.87-3.25-2.75-4.25-6-2.62-10,1.75-4.25,3.62-8.63,5.5-12.88,1.12-2.62,2.87-4.37,6.25-3.5,1.87-3.25,3.62-6.37,5.5-9.5q16.31-27.18,32.75-54.25c1.12-1.87,2.5-3.5,3.87-5.37-3.87-6.13-7.87-12.25-11.87-18.5-1.25-2-2.63-4-3.88-6a14.75,14.75,0,0,1-1.5-12.13A33.92,33.92,0,0,1,729,365.67c6.5-6.5,13.12-12.88,19.62-19.5,7.63-7.63,15.13-15.5,22.75-23,2.88-2.88,6.5-3.5,10.5-2.88,5.25,1,8.88,4.13,11.63,8.63,7.75,12.75,15.62,25.62,23.5,38.37.5.88,1.12,1.63,1.87,2.75,12.5-1.37,25-2.75,37.88-4.25a30.7,30.7,0,0,0-.5-3.5c-1.5-8.5-3.13-17-4.63-25.5a4.78,4.78,0,0,1,.13-3.25,3.28,3.28,0,0,1,2.5-1.75c.75-.12,1.75.88,2.25,1.63a12.1,12.1,0,0,1,.62,2.25c3.63,20.62,7.38,41.37,12.75,61.62a34.3,34.3,0,0,1,1,5,4.47,4.47,0,0,1-1.37,2.88,2,2,0,0,1-3-.38c-1.13-1.5-2.63-1.12-4-.87-11.38,1.62-22.75,3.12-34,4.75-2.13.37-4,.37-5.88-1a3.55,3.55,0,0,1-2.62-.25c-1.63-.5-3.25-1-4.75-1.5a5.75,5.75,0,0,0-6.25,1.5Zm-6.75-34.25-.63-1.25c-8.12-13.38-16.37-26.75-24.62-40a15.8,15.8,0,0,0-4.25-4.38c-3.5-2.37-6.75-1.87-9.75,1.13-11.75,11.87-23.5,23.62-35.38,35.5-2.12,2.12-4.5,4.25-6.5,6.37-3.12,3.25-3.5,7-1.37,10.88a31.45,31.45,0,0,0,2,3.5c9.87,15.37,19.75,30.75,29.5,46.12.5.75,1.12,1.5,1.87,2.5C780.58,413.42,797,393.42,813.21,373.17Zm44.25-1.38c-12.75,1.38-25.13,2.88-37.5,4.13a4.56,4.56,0,0,0-3.38,2c-15.12,18.75-30.25,37.37-45.5,56.12a9,9,0,0,0-1.25,2.25H774c15.75.38,31.62.75,47.37,1a10.55,10.55,0,0,0,5.13-1.37c3.75-2.25,6.12-5.88,8.75-9.38-1.63-1-2.63-.25-3.63.63a15.76,15.76,0,0,1-13.25,2.75,5.35,5.35,0,0,0-4.75,1c-2,1.5-4.12,2.87-6.75,2.87-6.87,0-13.87-.12-20.75-.12a4.9,4.9,0,0,1-1.37-.13,3.4,3.4,0,0,1-2.63-4.87,10.89,10.89,0,0,1,1.25-2c11.13-14.63,22.25-29.38,33.25-44a7.57,7.57,0,0,1,5.63-3.25c6.5-.63,12.87-1.38,19.25-2.13,1.75-.25,3.75-.75,5,1.13s-.13,3.5-1.13,4.87c-3.75,5.75-7.5,11.38-11.25,17-.5.75-.75,1.5-1.5,2.75,10.63-1.5,20.63-3,31-4.5C861.58,389.54,859.58,380.79,857.46,371.79ZM748.58,578.29c1.88-7,3.5-13.25,3.75-20C741,556,730,553.92,718.46,551.54c-.75,5.38-1.63,10.5-2.25,15.63-.5,4-.5,4.12,3.37,5.25a142.36,142.36,0,0,0,14.25,3.5C738.58,576.92,743.46,577.54,748.58,578.29ZM729,609.42c3.62-1.63,7.12-3.38,10.75-4.88a3.39,3.39,0,0,0,2.37-3.62c.13-5.63.25-11.13.38-16.75a1.79,1.79,0,0,0-.38-1c-6.5-1.25-12.75-2.5-19.25-3.88-.75,8.5-1.37,16.5-2.12,24.25C723.71,605.67,726.21,607.42,729,609.42Zm-9.88-104.75c-9.62-1.5-18.37-4.63-25.62-11.75-1.88,4.5-3.63,8.75-5.38,12.87a2.71,2.71,0,0,0,.75,3.38c1,.75,1.88,1.62,2.88,2.37a56.6,56.6,0,0,0,18.12,8.25,66,66,0,0,0,7.5,1C718.08,515,718.58,509.92,719.08,504.67Zm-32,31.25c1.75,2.75,3.25,5.25,4.75,7.87,4.38.25,8.88.5,13.63.63,3.75-6,7.37-11.88,11.37-18.38-7.87,0-14.5-3.25-21.37-5.87C692.58,525.54,689.83,530.79,687.08,535.92ZM725,383.29a10.12,10.12,0,0,0,1.5,8.25c10.75,16.63,21.5,33.13,32.12,49.75a4.12,4.12,0,0,0,3.5,2.13c6,.25,12,.62,18,.87,13.13.63,26.38,1.25,39.5,1.75a22.14,22.14,0,0,0,9.38-1.62c7.5-2.88,10.75-9.63,14.87-15.75-1.62-1.13-2.62-.75-3.62.62a106.32,106.32,0,0,1-7.63,9.13A15,15,0,0,1,821,443c-17.63-.37-35.25-1-52.75-1.25a9.77,9.77,0,0,1-8.88-5c-10.5-16.5-21-32.87-31.62-49.37A23.8,23.8,0,0,1,725,383.29Zm-41.5,157.25c-10,3.63-19.38,7-28.63,10.25a9.21,9.21,0,0,0,3.5,1.5c11.63,2.13,23.13,4.38,34.75,6.5a3.28,3.28,0,0,0,2.25-.25,45.61,45.61,0,0,0,6.63-8.75c-3.88-.12-7-.37-10.13-.25-2.87.13-4.37-1-5.37-3.62C685.58,544,684.33,542.17,683.46,540.54Zm36.5,69c-2,5.75-5.25,9.88-8.5,14.13s-6.5,8.25-9.25,13.12a4.41,4.41,0,0,0,1.37-.12c10.88-5.38,21.75-10.75,32.5-16.13,4.25-2.12,4.63-6,4.63-10.37-3.5,1.62-6.75,3.12-9.75,4.75a4.59,4.59,0,0,1-5.88-.88A50.13,50.13,0,0,0,720,609.54ZM839,383.17c-5.75.62-10.63,1.12-15.63,1.75a4.64,4.64,0,0,0-2.62,1.75c-1.88,2.12-3.5,4.5-5.13,6.75-1.5,2-3,3.87-4.25,5.75,5,1.5,9.75,2.75,14.38,4.12C830.08,396.54,834.33,390.17,839,383.17Zm-40,45c-3.25-4.25-3.13-6,.37-9.38,1.88-1.87,3.75-3.87,5.75-6.12C803.83,412,803,411.54,802,411c-4.13,5.5-8.13,10.88-12.13,16.25v.38c0,.12.13.25.25.37C793,428.17,795.83,428.17,799,428.17Zm8.75-8.88c-3.25,2.38-3.25,2.38-3.25,4.25C805.71,421.92,806.71,420.67,807.71,419.29Z"/><path d="M923.08,210.67c8-5.25,16.25-6.63,25-4.38,12.5,3.38,20.13,11.5,22.5,24.25,2.5,13.13-.12,25.25-6.87,36.63-1.38,2.37-2.88,4.62-4.5,6.87a7.27,7.27,0,0,0-1.25,5.5,26.91,26.91,0,0,0,4.62,11.63c2.13,3.37,4.38,6.62,6.25,10.12A25.25,25.25,0,0,1,972,316.67c-.88,8-6.5,14.62-13.88,15.62-2.37.38-4.87-.25-7.62-.37-.13,1-.13,2.25-.25,3.37a27.51,27.51,0,0,1-4.75,13.38c-10.13,15-33,12.25-41.38-2.75-5.37-9.63-5.5-29.38,8.63-38.25.5-.25.87-.63,1.62-1.13a10.32,10.32,0,0,0-1-1.25c-6.62-5.87-8.12-13.37-6.37-21.75a26.32,26.32,0,0,1,7.75-14.12c3.37-3.25,7.12-6,10.62-9,2.75-2.25,5.75-4.13,8.13-6.63A15,15,0,0,0,937.08,238a8.56,8.56,0,0,0-11.37-5.62,2.5,2.5,0,0,0-1.88,2.75c.63,9.25-3.12,16.62-10.37,22.25-3.88,3-8.25,5.62-12.38,8.37-1,.63-2.12,1.25-3.62,2,1,2.25,1.87,4.5,2.87,6.63a27.64,27.64,0,0,0,2,3.12c1.25,2.13,1.25,4-.25,4.88s-3,.25-4.25-1.63c-1.5-2.37-2.87-4.87-4.25-7.37-.37-.63-.62-1.38-1.12-2.38-.88,1-1.38,1.75-2.13,2.5a17.06,17.06,0,0,1-2.12,2.13c-1.88,1.37-3.75,1.25-4.5-.88-1.63-4.25-5-6.62-8.38-9.12-1.25-1-2.5-2-4.12-3.25.37,1,.5,1.62.75,2.25,2.37,5.87,4.25,11.75,4.37,18.12a8.53,8.53,0,0,1-3.12,6.88c-1.5,1.25-2.88,1.37-4,.25a2.38,2.38,0,0,1-.13-3.63c2.13-2.25,1.88-4.75,1.25-7.37-1-3.75-2.12-7.38-3.12-11.13a3.2,3.2,0,0,0-2.88-2.5c-2.25-.5-4.37-1-6.62-1.62-9.25-2.88-13.88-8.75-14.63-18.38-.12-2.75-.12-5.5,0-8.12.25-2.88.88-5.75-.62-8.63-1-1.87-.13-3.75,1.62-5.12a27.34,27.34,0,0,0,3.13-2.13,31,31,0,0,0,2.75-3.87c1.12-1.75-.13-2.88-.75-4.38-2.63-5.37-1.63-10.75,1.12-15.62,2.88-5.13,7.38-8.88,13.38-8.63a25.77,25.77,0,0,0,10.25-2c5.62-2.25,11.62-1.87,17.5-.62a104.33,104.33,0,0,1,10.75,3c9.75,3.37,16.12,10.12,19.87,19.75A2.76,2.76,0,0,1,923.08,210.67Zm-52.62,50a30.36,30.36,0,0,1-1.5-2.88,19.68,19.68,0,0,1-2.25-9.12c.12-3.75,1.25-4.75,5-4.88a6.66,6.66,0,0,0,5.62-3.25,10.42,10.42,0,0,0,.63-10.12c-1-2.13-2.5-3.75-5.13-4s-4.5,1.37-5.75,3.5c-.62,1-.87,2.12-1.5,3.12a2.51,2.51,0,0,1-3.12,1.38,2.8,2.8,0,0,1-1.88-3.25,22.91,22.91,0,0,1,.63-2.75c-2.5-2.25-4.75-4.38-6.88-6.25-1.87,1.62-3.75,3.25-5.75,5,1.5,2.62.75,5.62.63,8.5s-.25,6.12-.13,9.12c.13,6.88,4,10.88,10.25,12.75A89,89,0,0,0,870.46,260.67Z"/><path d="M765.08,210.54a20.13,20.13,0,0,1-2-.37c-2.87-.75-4.12-2.5-3.87-5.5s1.87-5.38,3.62-7.63c1.25-1.62,3.13-3,2.75-5.62a2,2,0,0,1,.63-1.25c1.25-1.13.87-2.38.37-3.75a44.11,44.11,0,0,1-2.62-15,29.34,29.34,0,0,1,.5-5.75A4.11,4.11,0,0,1,768,162a4.34,4.34,0,0,1,4.62,2.75,20.54,20.54,0,0,1,1.13,2.88c2.87,6.25,5.75,12.62,8.62,18.87,1.63,3.63,3.5,7.13,4.88,10.88a85.78,85.78,0,0,0,8.12,17.12,390.32,390.32,0,0,0,27.75,39.25,80,80,0,0,0,10.63,11,250.88,250.88,0,0,0,27.12,21.63c.25.25.63.37.88.62,1.37,1.25,1.87,2.63,1.12,3.88s-2.5,1.62-4.25.62a40.78,40.78,0,0,1-6.12-4.25c-8.5-7-17.38-13.62-25.38-21.12-5.25-4.88-9.62-10.88-14.12-16.63-9-11.25-16.63-23.25-24.25-35.37-2.88-4.75-4.63-9.88-6.63-14.88-1.37-3.62-3.12-7-4.75-10.5-2-4.25-4.12-8.62-6.25-12.87-.25-.5-.62-.88-1.25-2a46.51,46.51,0,0,0,4,15.5,5.35,5.35,0,0,0,1.63,1.75c.87.87,1.87,1.62,2.75,2.5,1.25,1.12,1.87,2.37.87,3.87s-2.37,1.63-3.87.75c-.25-.12-.63-.25-1.5-.62a18.73,18.73,0,0,0,1.5,2.5c.62.87,1.37,1.5,1.87,2.37,1.5,2.38.5,4.38-2.25,4.38a2.91,2.91,0,0,0-2.87,1.75c-1.5,2.87-1.75,5.5.12,8.62,5.38,9.25,10.38,18.63,15.63,28,3.12,5.63,6.25,11.38,9.5,17,4.75,8.38,10,16.25,17,22.88,6.12,5.87,13.25,10.37,20.5,14.62,4.75,2.88,9.75,5.38,14.62,8,.25.13.63.25.88.38,1.75,1,2.25,2.25,1.75,3.62s-2,2-4,1.38a11.59,11.59,0,0,1-2.13-1A203.91,203.91,0,0,1,816,293.79a76.25,76.25,0,0,1-14.63-15.12c-6.12-8.13-10.75-17.13-15.62-25.88-5.75-10.25-11.38-20.5-17-30.75a3.24,3.24,0,0,0-.5-.87C765.08,218.42,764.33,214.79,765.08,210.54Zm4.63-7.62c-.75-1.13-1.25-2-2-3.13-1,1.38-1.63,2.5-2.75,4.13C766.71,203.42,767.83,203.29,769.71,202.92Z"/><path d="M758.71,356.29a2.73,2.73,0,0,1-2.63-2.62,2.57,2.57,0,0,1,5.13-.13A2.58,2.58,0,0,1,758.71,356.29Z"/><path d="M857.21,247.42c-3.63,0-6.38-2-7.25-4.88-.5-1.62,0-3.25,1.25-3.75a2.51,2.51,0,0,1,3.5,1.13c1,1.87,2.37,2.25,4.25,1.62a1.4,1.4,0,0,1,.62-.12c2.5-.5,3.75,0,4.25,1.62s-.5,3.13-2.87,3.88a15.14,15.14,0,0,1-2.25.5Z"/></g><g id="Money"><path d="M306.64,112.27c.5,8.38.62,16.75,1.37,25.13.38,3.75-1.12,6-4,7.5-9.87,4.87-19.87,6.62-30.5,2.12a116.38,116.38,0,0,0-13.12-4.62c-6.5-1.75-12.63-.25-18.25,3.25-4.25,2.62-7.13,1.5-7.88-3.5-1.75-10.25-3.25-20.63-4.87-31-.38-2.13-.63-4.25-1.13-6.38-.75-4,0-5.62,3.75-7.25,7.75-3.37,15.63-3.37,23.63-1.12,3.37,1,6.62,2.25,10,3.25,10.62,3.37,20.62,1.62,29.87-4.5,1.38-.88,2.63-1.88,3.88-2.75,1.5-1.13,2.87-2,4.87-.88s2.75,2.75,2.63,5c-.13,5.25,0,10.5,0,15.63C306.89,112.27,306.76,112.27,306.64,112.27Z"/><path d="M624.25,57.39a19.07,19.07,0,0,1,38.13.12,19.21,19.21,0,0,1-19.13,19.13A19,19,0,0,1,624.25,57.39Z"/><path d="M582,18.14c.25-9.63,7.75-18.5,18.75-18.13C611.38.39,619,7.26,619.13,18.76a18.51,18.51,0,0,1-18.75,18.5A19,19,0,0,1,582,18.14Z"/><path d="M356.26,143.77a17,17,0,1,1,0,34,17,17,0,1,1,0-34Z"/><path d="M729.25,690.74c4.63.5,10.25,1.12,16,1.62,2.13.25,4.25.25,6.5.38a22.91,22.91,0,0,0,12.38-3.13c2.25-1.37,4.5-2.62,6.62-4.12a9.94,9.94,0,0,0,2.75-2.88c1.38-1.75,2.5-2.12,4.25-.87,1.38,1,2.75,1.87,3,3.87,1.5,13.38,5.75,26.13,8.25,39.25a15.29,15.29,0,0,0,1,4.25c1.38,2.63.5,4.63-1.12,6.75a50.18,50.18,0,0,1-10.38,10.25,33.88,33.88,0,0,1-22.87,6.25,66.31,66.31,0,0,1-7.13-.75c-12.62-1.75-24.37,1-35.5,6.88-.5.25-1,.62-1.5.87-3,1.5-5,.88-6.25-2.25-5-12.25-10.37-24.25-13.87-37a31.56,31.56,0,0,0-2.13-5.75,4,4,0,0,1,.88-4.37,42.45,42.45,0,0,1,10.5-10.13C709,694.36,718,690.74,729.25,690.74Z"/><path d="M685.38,775.11a21.19,21.19,0,1,1-42.38.25c0-11.5,9.5-21.37,20.75-21.25C677.38,754.24,685.25,764.24,685.38,775.11Z"/><path d="M1116.5,392a21.5,21.5,0,1,1,.13-43,21.5,21.5,0,0,1-.13,43Z"/></g><g id="Accent"><path class="cls-1" d="M270.5,111.76c1,.62,2.13.87,2.5,1.5a6.41,6.41,0,0,1,.88,3c-.13,1.25-1.38,1.62-2.63,1.62h-3.37c-.13,0-.13.13-.5.38a11.24,11.24,0,0,0,1.37,1.12c.63.38,1.25.63,1.75,1q7.5,4.5.75,10.13v3.75c-.12,1.87-1,3-2.5,3.25a2.87,2.87,0,0,1-3-2.63c-.25-2.12-.5-4.12-2-5.87-1.12-1.25,0-2.75,2.75-4.13a24,24,0,0,1-2.62-1.62c-3.5-2.25-4.13-5.88-1.13-8.88a5.89,5.89,0,0,0,2-4.12c.13-2.13,1.13-3.38,2.63-3.25,1.75.12,2.5,1.37,2.75,2.87A5,5,0,0,1,270.5,111.76Z"/><path d="M135,133.76c.63-.75,1-1.75,1.63-2a5.6,5.6,0,0,1,2.87.12c.63.25,1.13,1.13,1.5,1.75,3.38,4.75,6.63,9.5,10,14.25,1.75,2.5,3.63,4.88,5.5,7.38,1.13,1.5,1.25,2.87.25,4a2.78,2.78,0,0,1-4,.12,13.1,13.1,0,0,1-2.5-2.75l-13.87-19.87C135.88,135.88,135.5,134.88,135,133.76Z"/><path d="M159.5,121.76a6.85,6.85,0,0,1,2,1.87c1.25,2,2.13,4.25,3.25,6.38,2.88,5.25,5.88,10.5,8.75,15.75,1,1.75,1,3-.12,4s-2.75,1-4.13-.5a19,19,0,0,1-2.87-4.13c-3.25-6-6.25-12.12-9.38-18.12a8.27,8.27,0,0,1-.75-2.25C156.13,123,157.38,121.76,159.5,121.76Z"/><path d="M180.38,117.63c2.37.13,3.12,1.25,3.5,2.75l1.87,7.88c.88,3.62,1.88,7.25,2.88,10.87.5,2,.12,3.5-1.38,4s-2.87-.25-3.75-2a8.27,8.27,0,0,1-.75-2.25c-1.37-5.5-2.75-11-4-16.5a4.73,4.73,0,0,1-.12-2.62A6.1,6.1,0,0,1,180.38,117.63Z"/><path class="cls-1" d="M358.5,162.88c-2.25-.25-4.5-.37-6.75-.75-1.87-.25-2.87-1.5-2.75-2.87a2.85,2.85,0,0,1,3.13-2.5c3,.12,6.12.37,9.12.75a2.66,2.66,0,0,1,2.5,3c-.25,1.37-1.37,2.25-3.25,2.25a5.4,5.4,0,0,1-2,.12Z"/><path class="cls-1" d="M744.71,728.15c-1-.38-2-.88-3-1.25s-2.38-.88-3.5-1.38c-4.5-2.25-5.5-6-2.75-10.12,1.12-1.63,1.75-3,1.12-5-.62-2.25.13-3.75,1.75-4.25s2.5.25,3.63,2.75a3.74,3.74,0,0,0,.5,1c1.12.12,2.37,0,3.62.25a3,3,0,0,1,2.5,3.12c-.25,1.63-1.25,2.25-2.87,2.25a6.25,6.25,0,0,0-6.13,4c1.38.63,2.63,1.25,3.88,1.88,1.5.75,3.25,1.25,4.62,2.12,5.13,3.25,5.13,7.63,0,11,.13,1,.38,2.13.5,3.25a2.41,2.41,0,0,1-1.87,2.88,2.57,2.57,0,0,1-3.25-1.63c-.5-1.37-.88-2.75-1.38-4.25-.62-.25-1.25-.37-1.87-.62-1.75-.75-2.5-1.88-2.13-3.38s1.63-2,3.13-2c1.12,0,2.25.13,3.37.13A2.09,2.09,0,0,1,744.71,728.15Z"/><path class="cls-1" d="M660.08,780.27c-2.37.13-3.62-.75-4-2.12-.37-1.63.5-2.75,2.63-3.25,2.87-.75,5.62-1.5,8.5-2.13a3.8,3.8,0,0,1,2.62-.12A4.93,4.93,0,0,1,672,775a2.13,2.13,0,0,1-1.63,2.63C666.83,778.52,663.21,779.4,660.08,780.27Z"/><path class="cls-1" d="M596.86,24.55c-2.25-.13-3.38-2-2.63-3.75a5.1,5.1,0,0,1,1.5-1.75c2.75-1.88,5.5-3.63,8.25-5.5a.41.41,0,0,0,.25-.13c1.75-.75,3.13-.5,3.88.75a2.83,2.83,0,0,1-1,3.88c-1.38,1-2.75,1.87-4.25,2.87s-2.88,1.88-4.25,2.75A4.7,4.7,0,0,1,596.86,24.55Z"/><path d="M504.67,814H267.42c-1.5,0-3,0-4.38-.12a2.38,2.38,0,0,1-2.37-2.38,2.31,2.31,0,0,1,2.12-2.62,22.21,22.21,0,0,1,4-.25c39,0,78-.13,116.88-.13q178.88,0,357.87-.12h3.75c1.88.12,3,1.12,3.13,2.5s-1.13,2.75-3.13,2.87a29.14,29.14,0,0,1-3.37,0H504.67Z"/><path d="M1111,708.17a28.71,28.71,0,0,0-4.75,16.5,78.23,78.23,0,0,0,8.5,37.12,40.27,40.27,0,0,0,11.5,13.25c.63.5,1.5.88,1.75,1.5.38.88.63,2.25.13,2.75a3.53,3.53,0,0,1-2.75,1.25,9.93,9.93,0,0,1-4-2.37,48.29,48.29,0,0,1-14.25-19.63,90.05,90.05,0,0,1-6.38-30.87c-.25-8.88,1.63-17.13,6.75-24.5.25-.25.25-.63.5-1a66.46,66.46,0,0,1-6.12-19,79.22,79.22,0,0,1-.13-21.75c1.25-10.63,2.75-21.13,4-31.75.38-3,.25-6.13.38-9.25a11.14,11.14,0,0,1,.12-2c.25-1.88,1.38-2.88,2.75-2.88s2.63,1.13,2.63,3a93.61,93.61,0,0,1-.38,11.88c-1,8.87-2.25,17.75-3.37,26.75-1.25,9.75-2,19.5.37,29.12a56.51,56.51,0,0,0,3.88,11.13c1.5-1.13,2.75-2,4-2.88,8.12-5.5,17.87-4.87,24.25,1.88a19.41,19.41,0,0,1,3.87,6.37c1.75,5,1,9.75-2.75,13.63a15.13,15.13,0,0,1-14.75,4.25c-4.62-1-8.25-3.75-11.25-7.25A46.13,46.13,0,0,1,1111,708.17Zm3.88-5.25a28.46,28.46,0,0,0,8,10.12,11.43,11.43,0,0,0,7.87,2.5c7.25-.5,10.63-7.62,6.63-13.62a12.56,12.56,0,0,0-13.13-5.13A18.93,18.93,0,0,0,1114.92,702.92Z"/><path d="M82.07,811.62h-76a10.43,10.43,0,0,1-4-.37,4.19,4.19,0,0,1-2-2.38c-.37-1.37.75-2.37,2.13-2.62A22.8,22.8,0,0,1,6.32,806c38.13,0,76.38.12,114.5.25H158.7a25.08,25.08,0,0,1,3,.12,2.63,2.63,0,0,1,2.5,2.75,2.49,2.49,0,0,1-2.38,2.5,18.83,18.83,0,0,1-3.75.13h-76Z"/><path d="M988.54,546.54a5.3,5.3,0,0,1-1.37-.12,2.65,2.65,0,0,1-2.5-2.75c0-1.63,1.12-2.38,2.62-2.63,2.38-.37,4.75-.62,7.13-1,12.62-2.37,24.87-6.25,36.12-12.5,2.13-1.12,4.25-2.12,6.38-3.12s3.5-.38,4.12,1,.13,2.87-1.62,3.87c-15.38,8.38-31.38,14.63-48.88,17C989.92,546.42,989.17,546.42,988.54,546.54Z"/><path d="M1095,591.54c0-5.75,3.63-10,9-10.37s10.13,3.87,10.75,9.62c.75,6.13-3.5,11.38-9.12,11.63S1095,597.54,1095,591.54Zm14.25.63a5.89,5.89,0,0,0-3.12-5.25,3.82,3.82,0,0,0-4.38,1,5.68,5.68,0,0,0-.62,6.12.42.42,0,0,0,.12.25c1.13,1.88,3.13,2.88,4.75,2.38A4.76,4.76,0,0,0,1109.29,592.17Z"/><path d="M1095.54,814.42h-4.37c-1.88-.13-3-1-3.13-2.5s1-2.75,3-3h.63c7.75-.75,15.5-1.38,23.37-2.13a7.63,7.63,0,0,1,2.38-.12,2.81,2.81,0,0,1,.12,5.62c-4.87.5-9.62,1-14.5,1.38C1100.29,814,1097.54,814.29,1095.54,814.42Z"/><path d="M993.42,379.79c-.38,2.13-1.63,3.63-3.25,3.63s-2.75-1.25-2.88-3.25c-.5-5.88-1.12-11.75-3.12-17.38a2.66,2.66,0,1,1,4.87-2.12,6.33,6.33,0,0,1,.88,1.87C991.17,368.29,992.29,374,993.42,379.79Z"/><path d="M1005.67,372.67c0,1.5.12,3,0,4.37-.13,1.88-1.13,3-2.63,3s-2.75-1.12-2.87-3.12,0-3.88-.13-5.75c-.37-3.38-.87-6.75-1.37-10.13-.25-2.25.25-3.37,1.75-3.87s3.12.5,3.62,2.62c.88,4.25,1.38,8.5,2,12.75A.44.44,0,0,1,1005.67,372.67Z"/><path d="M1012.17,554a5.93,5.93,0,0,1-1.63-.12,2.59,2.59,0,0,1-2.25-2.63,2.32,2.32,0,0,1,2.13-2.62c5-.63,9.37-3.25,14.12-5a11.54,11.54,0,0,1,1.88-.63c1.5-.37,2.75-.12,3.37,1.5s0,2.63-1.37,3.5c-.25.13-.63.38-.88.5-3.87,1.63-7.75,3.25-11.62,4.75C1014.54,553.67,1013.17,553.79,1012.17,554Z"/><path class="cls-1" d="M1109.79,377.42c-.5-.5-1.62-1-2-1.88s.25-1.87.63-2.75a2.81,2.81,0,0,1,1.37-1c4-2.12,8-4.37,12-6.5a5,5,0,0,1,2.75-1,4.56,4.56,0,0,1,2.63,1.63,2.09,2.09,0,0,1-.63,3c-5,2.87-10.12,5.5-15.25,8.12C1111,377.42,1110.67,377.29,1109.79,377.42Z"/><path class="cls-1" d="M640.61,55.05c2.25.37,4.5.62,6.75,1a6.64,6.64,0,0,1,2.25.75,2.32,2.32,0,0,1,1.25,2.87A2.53,2.53,0,0,1,648,61.55c-3.12-.25-6.37-.63-9.5-1.13a3,3,0,0,1-2.75-3c.13-1.5,1.38-2.37,3.5-2.5.5,0,.88.13,1.38.13Z"/><path d="M1197.27,48.7c-.13.38-.25,1.25-.5,2.13q-20.82,81.75-41.5,163.37c-8.75,34.38-17.5,68.88-26.25,103.25a14,14,0,0,1-1,3.25,2.57,2.57,0,0,1-3.13,1.5,2.51,2.51,0,0,1-1.87-2.87,30.81,30.81,0,0,1,.62-3.38c10.25-40.62,20.63-81.12,30.88-121.75q18.18-71.8,36.5-143.5a17.11,17.11,0,0,1,1-3.62c.5-1.38,1.5-2.38,3.12-2S1197.39,46.7,1197.27,48.7Z"/></g></g></g></g></g></svg>