<svg xmlns="http://www.w3.org/2000/svg" viewBox="0 0 1311.65 773.3"><defs><style>.cls-1{fill:#fff;}.cls-2{fill:#ffd622;}.cls-3{fill:#6250fe;}.cls-4{fill:none;stroke:#fff;stroke-linecap:round;stroke-linejoin:round;stroke-width:4px;}</style></defs><g id="Layer_2" data-name="Layer 2"><g id="All"><g id="Flow"><g id="Flow-revision1"><g id="Flow-2" data-name="Flow"><g id="Main-Screen"><path id="Path" class="cls-1" d="M1097.8,710.5c-1.4,3-4.1,4.3-7.2,4.9-.5.1-1.1,0-1.4.3-2.6,2.3-5.7,1.7-8.7,1.7q-407.25-.15-814.5-.2a31.83,31.83,0,0,0-8.1.8c-1.9.5-4.1-.2-6.1-.4a19.62,19.62,0,0,1-10.3-4.8c-4.9-4.2-10.4-8.6-13.9-14.1-3-4.6-3.9-9.7-4.7-15.1a79.83,79.83,0,0,1-.8-12.9q-.15-279.6-.4-559.2c0-3.2-.4-6.4-.5-9.5a13.33,13.33,0,0,1,.3-2.8c3.2-14.2,9.6-26.8,19.7-37.2a167.34,167.34,0,0,1,22.1-19.1,41.69,41.69,0,0,1,11.8-6.2c5-1.6,10.1-3.9,15.4-1.7,1.4.6,3.2.3,4.8.3q54,0,108-.2c214.7-.3,429.4.3,644.1,0,1.9,0,3.8-.2,5.7-.2a61.09,61.09,0,0,1,8.6.6c4.7.8,9.4,2.1,14.1,3a79.3,79.3,0,0,1,23.1,9,40.09,40.09,0,0,1,12.9,11.3,95.69,95.69,0,0,1,7.1,10.8,108.56,108.56,0,0,1,10,25.9c1.4,6.1,2.8,12.1,4,18.3a49.13,49.13,0,0,1,.8,8.6c.1,9.1.2,18.2.1,27.4a220.93,220.93,0,0,0,2.2,32.5,148.47,148.47,0,0,1,1.6,21c-.1,8-.5,16-.5,24-.1,13.3-.1,26.6.1,39.8.4,21.8,1.4,43.5.3,65.3-.6,12.9-1.5,25.9-2.4,38.8-.6,9.1-1.4,18.2-2.2,27.3-.7,8.1-1.6,16.2-2.3,24.4s-1.3,16.3-1.5,24.4c-.7,22.5-1.1,45.1-1.6,67.7-.2,11.8-.2,23.7-.3,35.5a250.29,250.29,0,0,1-2.3,33.5,87.68,87.68,0,0,0-.8,11.5c.1,12.5.5,24.9.6,37.4a138.23,138.23,0,0,1-.6,15.8c-1.2,9.5-1.9,19.1-2.6,28.7-.7,8.8-3.8,16.8-7.7,24.5-2.3,4.5-5.7,7.2-10.7,7.9A25.76,25.76,0,0,0,1097.8,710.5Z"/><path id="Shape" class="cls-2" d="M670.5,103.8q220.2.3,440.5.7c1.8,0,3.5-.1,5.3-.1,2.3,0,3.2.8,3.3,3.1v5.8l.9,56.1c0,1.3.1,2.6,0,3.8-.1,2.6-.7,3.3-3.5,3.5-2.1.2-4.2.1-6.2.1q-154.8-.15-309.5-.4-286-.3-572-.5a38.46,38.46,0,0,1-4.8-.1c-2.9-.3-4.3-1.8-4.3-4.7,0-2.6.1-5.1.2-7.7.5-18.9,1-37.7,1.5-56.6v-1.4a2.62,2.62,0,0,1,2.8-2.6c2.2.1,4.5.3,6.7.3l215.9.3q111.6.15,223.1.5A.1.1,0,0,0,670.5,103.8ZM1087.7,144a18.75,18.75,0,0,0-2.9-10.4c-3.5-5.1-8.3-7.9-14.6-7.5s-10.8,3.6-13.7,9.1a17.66,17.66,0,0,0,3.5,20.7,16.12,16.12,0,0,0,22.5-.2A17.46,17.46,0,0,0,1087.7,144ZM279,146.5a52.71,52.71,0,0,0-2.2-6.7,6.61,6.61,0,0,1-.8-4.1,9.66,9.66,0,0,0-.1-2.4c-.6-4.5-3.6-7.3-8.2-7.1a18,18,0,0,0-6.5,1.4,35.71,35.71,0,0,0-18.3,18.2,6,6,0,0,0-.6,2.3,2.06,2.06,0,0,0,1.5,2.2,2,2,0,0,0,2.5-.9c.4-.6.7-1.4,1.1-2.1,2.7-6.1,7.3-10.5,12.7-14a13.2,13.2,0,0,1,7.2-2.4c3.2-.1,4.3,1.4,3.5,5.1-.9.1-1.8.3-2.7.4a16.81,16.81,0,0,0-10,5.2,11.13,11.13,0,0,0-3,5.4c-.6,2.7-.3,5.2,1.9,7s4.5,1,6.7-.2a24.33,24.33,0,0,0,6.9-5.9c.8-.9,1.6-1.8,2.8-3.1.2,2.6-.7,4.3-1.3,6.1a21.37,21.37,0,0,0-.8,3.2,2.32,2.32,0,0,0,3.4,2.1,9.62,9.62,0,0,0,2.2-1.8c2.4-2.9,5.2-4.7,9.2-3.2.1.1.3,0,.5,0a2.38,2.38,0,0,0,2.8-2c.2-1.1-.5-2-1.8-2.4A16.63,16.63,0,0,0,279,146.5Zm102.2-5.3v.2h50.9c1.3,0,2.6,0,3.8-.1a2.73,2.73,0,0,0,2.7-2.2c.1-1.1-1-2.2-2.5-2.4a28.1,28.1,0,0,0-2.9-.1c-34.5-.1-69.1-.1-103.6-.2a18.29,18.29,0,0,0-3.3.2,1.88,1.88,0,0,0-1.7,2,2,2,0,0,0,1.5,2.2,25.58,25.58,0,0,0,4.7.4Zm604-2.5-36.4.6a18.29,18.29,0,0,0-3.3.2,2,2,0,0,0-1.7,2,2,2,0,0,0,1.6,2.1,20.28,20.28,0,0,0,4.3.3l68-.9c1.6,0,3.2,0,4.8-.1a5.58,5.58,0,0,0,2.3-.6,2.71,2.71,0,0,0,1.1-1.9,2.1,2.1,0,0,0-1.3-1.7,20.28,20.28,0,0,0-4.3-.3Z"/><path class="cls-2" d="M269.1,141.1c-2.1,4.3-4.9,7.3-7.8,8.7a1.47,1.47,0,0,1-1.3-.1,1.37,1.37,0,0,1-.4-1.2,11.69,11.69,0,0,1,1.4-3A10.78,10.78,0,0,1,269.1,141.1Z"/><path d="M671.1,31h373.4c5.1,0,10.2.5,15.3.7,2.2.1,4.5.1,6.7.1a118.62,118.62,0,0,1,48.2,8.9,89.8,89.8,0,0,1,28.7,18.8,70.85,70.85,0,0,1,20.3,37.9,61.77,61.77,0,0,1,.7,10.5q.45,175.65.7,351.3l.3,208.8c0,7.4-.3,14.7-2.5,21.8a34.49,34.49,0,0,1-18.8,21.9,68,68,0,0,1-19.3,5.6c-6.5,1-13,1.6-19.5,2s-12.8,1.2-19.2.8c-6.9-.4-13.7.2-20.5.2q-354,0-707.9.2H269.4c-4.5,0-9,.2-13.4-.2-19.2-1.7-33.4-14.4-37.1-33.3a84.66,84.66,0,0,1-1-10c-.1-1.9,0-3.8,0-5.8q0-282.15-.1-564.4A61.77,61.77,0,0,1,227,74a98.86,98.86,0,0,1,39.6-36.8,82.91,82.91,0,0,1,9.7-4.1,39.27,39.27,0,0,1,13.6-2.3q190.8.45,381.2.2Zm-3.4,685v-.4h400.7a91.91,91.91,0,0,0,13.9-1c11-1.7,20.3-6.5,27.4-15.3a42.22,42.22,0,0,0,7.1-11.9c1.8-4.8,3.7-9.5,3.7-14.8q-.45-48.45-.7-96.9-1-161.7-2.1-323.5-.45-74.4-1-148.8a65.12,65.12,0,0,0-1.2-12.4c-3.7-18.2-12.9-32.8-28-43.7C1076,39,1063,36,1049.1,35.7c-7-.1-14.1,0-21.1,0q-368.55,0-737.2,0a38.35,38.35,0,0,0-15,2.7c-1.8.7-3.6,1.4-5.3,2.2a94,94,0,0,0-33.9,27.7,74.56,74.56,0,0,0-9.4,15.5,48.31,48.31,0,0,0-4.6,20.9c.2,11.4,0,22.7,0,34.1V676.3a44.35,44.35,0,0,0,1.1,10.9c3,12.1,9.7,21.1,21.5,25.9a44.53,44.53,0,0,0,18.8,3c2.1-.1,4.2-.2,6.2-.2Q469.1,716.05,667.7,716Z"/><path d="M419.6,250.3H329.9c-2.8-.2-3.4-.7-3.7-3.3-.2-1.6-.3-3.2-.4-4.8-.6-10.5-1.2-21.1-1.7-31.6a12.05,12.05,0,0,1,0-1.9,2.88,2.88,0,0,1,2.4-2.6,27.15,27.15,0,0,1,2.9-.1c29.3.4,58.5.9,87.8,1.3,12.8.2,25.6.3,38.4.5,17.4.2,34.8.5,52.3.8,5,.1,5.5.5,5.5,5.5.1,10.2,0,20.5.1,30.7a19.27,19.27,0,0,1-.1,2.4,2.84,2.84,0,0,1-2.8,2.7c-1.6.1-3.2.1-4.8.1H420C419.6,250,419.6,250.2,419.6,250.3Z"/><path d="M921.8,209.2l44.1,1.2c14.7.4,29.4.7,44.1,1.1,5,.1,5.4.6,5.8,5.5.7,9.9,1.4,19.8,2,29.7a24.09,24.09,0,0,1,0,3.8,2.14,2.14,0,0,1-1.8,2,18.29,18.29,0,0,1-3.3.2c-4.5,0-9,0-13.4-.1q-77.55-.6-155-1.1c-2.9,0-5.8,0-8.6-.2s-3.6-.9-3.9-3.8-.5-6.1-.7-9.1c-.7-8.9-1.5-17.8-2.2-26.8,0-.3-.1-.6-.1-1-.1-3.2.6-3.9,3.9-4h1.4c17.1.5,34.2,1,51.3,1.4,12.1.6,24.2.9,36.4,1.2Z"/><path d="M669.1,251.3q-41.7-.6-83.5-1.3c-1.4,0-2.9,0-4.3-.1-2.2-.2-3-1.2-3.1-3.4v-1c.7-11.3,1.4-22.7,2.2-34,.4-5.7.6-5.8,6.4-5.7l71.9,1.8c32,.8,63.9,1.5,95.9,2.2,6.5.2,6.6.3,6.7,6.9v31.7c-.1,3.3-1,4.1-4.4,4.2H754c-28.3-.4-56.6-.9-84.9-1.3Z"/><path d="M671.7,526.9c-35.2.3-70.4.5-105.6.8-1.3,0-2.6.1-3.8,0-2.7-.2-3.4-.8-3.6-3.4a19.27,19.27,0,0,1-.1-2.4c-.3-35.8-.6-71.7-.9-107.5,0-5.3.3-5.6,5.7-5.7l213.5-1.8a47,47,0,0,1,5.3.2,2.45,2.45,0,0,1,2.2,2.2c.1,1.1.1,2.2.2,3.4l.9,106.5v3.4c-.2,2.2-.8,2.9-2.9,3.1-1.6.2-3.2.1-4.8.2-21.9.2-43.8.5-65.7.6-13.4.1-26.9,0-40.3,0A.6.6,0,0,0,671.7,526.9Zm-108-4.3a3.71,3.71,0,0,0,1.4.4L779,521.2a4.76,4.76,0,0,0,1.4-.5,7.37,7.37,0,0,0,.4-1.4c-.3-35.3-.6-70.7-.9-106,0-.4-.3-.9-.4-1.5-2-.8-4.1-.4-6.1-.4q-96,.9-191.9,1.7c-5,0-9.9,0-14.9.1-1.2,0-2.5.2-3.7.3a9,9,0,0,0-.5,1.6c.3,35.3.6,70.7.9,106A6.58,6.58,0,0,0,563.7,522.6Z"/><path d="M670.3,395.3c-35.8-.1-71.6-.3-107.5-.4-1.6,0-3.2,0-4.8-.1a2.86,2.86,0,0,1-2.8-2.8c-.1-1.4-.1-2.9-.1-4.3.2-34.1.4-68.1.6-102.2,0-6,.2-6.2,6.2-6.2q68,.15,135.8.5c27,.1,54,.3,81.1.4a31,31,0,0,1,4.3.2c1.8.2,2.6.9,2.7,2.8a38.46,38.46,0,0,1,.1,4.8c-.1,24.5-.3,48.9-.4,73.4-.1,9.6-.1,19.2-.1,28.8,0,5.4-.4,5.7-5.8,5.7-36.5-.1-72.9-.3-109.4-.4A.31.31,0,0,0,670.3,395.3ZM781.4,285.4a18.08,18.08,0,0,0-6.3-.6l-208.3-.9c-1.1,0-2.2-.1-3.4,0-.9.1-1.8.3-3,.5-.1,1.9-.1,3.7-.1,5.4-.2,31.2-.3,62.4-.5,93.6,0,1.3-.1,2.6,0,3.8a22.6,22.6,0,0,0,.6,3l218,.9a14.81,14.81,0,0,0,1.9-.3,19.58,19.58,0,0,0,.3-2C781,354.4,781.2,320.1,781.4,285.4Z"/><path d="M926.7,282.2l105.6.6c1.6,0,3.2,0,4.8.1a2.8,2.8,0,0,1,2.8,2.8,28.1,28.1,0,0,1,.1,2.9c-.2,33.8-.4,67.5-.6,101.3,0,1.3,0,2.6-.1,3.8-.2,2-1.1,2.8-3.1,3a24.09,24.09,0,0,1-3.8,0q-91.2-.6-182.4-1.3l-30.7-.3c-1.3,0-2.6,0-3.8-.1a2.69,2.69,0,0,1-2.5-2.5,46.08,46.08,0,0,1-.2-5.3c.2-26.6.4-53.1.6-79.7.1-7,0-14.1.1-21.1,0-4.5.5-5,4.9-5,12.6,0,25.3.1,37.9.2,23.5.1,47,.3,70.6.4C926.7,282.1,926.7,282.1,926.7,282.2Zm108,5.2h-4.5q-101-.6-202-1.3c-2.4,0-4.8-.1-7.2,0a16.7,16.7,0,0,0-2.9.4c-.1,2-.2,3.8-.2,5.5-.2,20.5-.3,40.9-.5,61.4-.1,10.9-.2,21.7-.2,32.6,0,1.4-.4,2.9,1,4.4,1.6,0,3.5.1,5.4.1q77.7.6,155.4,1.1l50.4.3c1.6,0,3.2.4,4.9-.6a29.62,29.62,0,0,0,.3-3.1C1035.4,356.3,1035.5,292.3,1034.7,287.4Z"/><path d="M297.9,440.9q.15,129.75.4,259.6c0,1.6,0,3.2-.1,4.8a5.19,5.19,0,0,1-.7,2.2c-.3.5-1.1,1-1.5.9a3.27,3.27,0,0,1-1.9-1.2,2.69,2.69,0,0,1-.4-1.8c-.1-1.3,0-2.6,0-3.8q-.3-260-.7-519.8V177a12.25,12.25,0,0,1,.2-1.9,2.16,2.16,0,0,1,4.2-.1,6.15,6.15,0,0,1,.2,1.9v264Z"/><path d="M248.4,493.9c1.4-.5,2.6-.9,3.7-1.4,2.1-1,3.7-.4,5.1,1.2l3,3.3a37.77,37.77,0,0,0,5.8-5.5,11.6,11.6,0,0,1-2.7-1.1c-1.4-.9-1.6-2.8-.2-3.5a21.82,21.82,0,0,1,8.7-2.1,2.77,2.77,0,0,1,2.5,2.5,57.72,57.72,0,0,1,.2,7.2c-.1,2.1-1.7,2.8-3.7,1.6a9,9,0,0,1-1.2-1c-2,1.1-3.4,2.9-5,4.4a34.46,34.46,0,0,1-2.8,2.6,3,3,0,0,1-4.3-.4c-1.3-1.4-2.4-3-3.5-4.4-3.3.7-3.3.7-6.3,2.9v5.1a7.32,7.32,0,0,0,.4,1.6c1.4.1,2.8.2,4.2.2,5.9,0,11.8-.1,17.7-.1a12,12,0,0,1,3.8.4,2.56,2.56,0,0,1,1.2,1.8,1.76,1.76,0,0,1-.8,1.5,6.49,6.49,0,0,1-2.7.8c-8.1.1-16.3.2-24.4.2-3.1,0-4-1-4-4.1,0-7.5.2-15,.4-22.5a3.62,3.62,0,0,1,.6-2.3,2.88,2.88,0,0,1,2-.9,1.87,1.87,0,0,1,1.4,1,23.28,23.28,0,0,1,.4,3.8C248.2,489.1,247.7,491.3,248.4,493.9Z"/><path d="M284.1,71.3a14.45,14.45,0,0,1,14.3-14.4,14,14,0,0,1,14,14,14.25,14.25,0,0,1-14.6,14.6A13.66,13.66,0,0,1,284.1,71.3Zm4.7-.1a9.34,9.34,0,0,0,9.1,9.7,10,10,0,0,0,10-9.6,9.33,9.33,0,0,0-9.2-9.6A9.47,9.47,0,0,0,288.8,71.2Z"/><path d="M264.4,443.5c-3.5,0-7,.1-10.6,0s-4.3-.7-4.9-4.5c-.4-2.2-.7-4.4-1-6.6-.3-2.7.3-3.5,2.8-4a13.51,13.51,0,0,1,2.8-.4c6.5-.5,13.1-.9,19.6-1.3a9.64,9.64,0,0,1,2.4,0,2.55,2.55,0,0,1,2.7,2.3c.4,3.8.8,7.6.9,11.5.1,1.9-.9,2.9-2.9,3.2a30.88,30.88,0,0,1-4.3.1h-7.7Zm9.2-11.8c-4.1-.4-17.1.5-20.5,1.5a10.45,10.45,0,0,0,.9,5.3c.5.2.8.3,1.1.4,5.9.1,11.8.1,17.6.1a5.78,5.78,0,0,0,1.7-.6C274.5,435.9,274.6,433.7,273.6,431.7Z"/><path d="M341.1,84.7a12.89,12.89,0,0,1-12.6-13,13.86,13.86,0,0,1,14-13,12.43,12.43,0,0,1,12.5,13C354.9,78.8,348.3,84.8,341.1,84.7Zm9.3-13.4a7.71,7.71,0,0,0-7.8-7.9c-5.1-.1-9.4,3.9-9.3,8.8a8,8,0,0,0,8.1,7.7A9,9,0,0,0,350.4,71.3Z"/><path d="M386.5,59.7A12,12,0,0,1,398.4,72c-.1,7.2-6.5,13-13.9,13a11.93,11.93,0,0,1-12.1-12.5C372.7,65.2,379,59.6,386.5,59.7Zm7.2,12.2a7.4,7.4,0,0,0-4.3-6.9,9.12,9.12,0,0,0-11.8,5.2,7.32,7.32,0,0,0,3.7,9.3C386.7,82.2,393.6,77.9,393.7,71.9Z"/><path d="M252.5,421.5c-3.8-.2-7.7-.3-11.5-.5-2.2-.1-2.9-.8-3.2-2.9a82.65,82.65,0,0,1-.5-8.6,2.46,2.46,0,0,1,2.3-2.6,12.1,12.1,0,0,1,1.9-.1l20.1,1.2a28.5,28.5,0,0,1,2.9.3,2.62,2.62,0,0,1,2.5,3,66.08,66.08,0,0,1-.3,7.7,2.87,2.87,0,0,1-3.2,2.9c-3.7.1-7.3,0-11,0Zm9.3-5c.5-1.3.9-2.6-.3-3.8-7.5-1-18.1-1.4-19.3-.5a20.78,20.78,0,0,0,0,2.5,2.57,2.57,0,0,0,.5,1.2C247.2,416.9,257.7,417.2,261.8,416.5Z"/><path d="M256.3,216.1c-2.4,0-4.8.1-7.1,0a6.26,6.26,0,0,1-2.7-.6,2.17,2.17,0,0,1-1-1.9c0-.6.7-1.3,1.3-1.8a3.61,3.61,0,0,1,1.8-.3c5.1,0,10.2.1,15.3.1a6.75,6.75,0,0,1,1.4.2,2.44,2.44,0,0,1,1.9,2.4,2.12,2.12,0,0,1-2.2,2c-2.1,0-4.1-.1-6.2-.1Z"/><path d="M256.4,206.4h-6.7a12.89,12.89,0,0,1-2.8-.1,2,2,0,0,1-1.7-2,2.25,2.25,0,0,1,1.6-2.2,4,4,0,0,1,1.9-.3c5.3,0,10.5.1,15.8.1a5.26,5.26,0,0,1,1.8.4,2.09,2.09,0,0,1,1.2,2.3,2.23,2.23,0,0,1-1.9,1.9,19.22,19.22,0,0,1-2.4,0l-6.7-.3A.31.31,0,0,0,256.4,206.4Z"/><path d="M256.5,226h-6.2a5.87,5.87,0,0,1-2.3-.4,1.93,1.93,0,0,1-.4-3.2,5.82,5.82,0,0,1,3.1-1.1c4-.2,7.9-.2,11.9-.2a4.65,4.65,0,0,1,2.3.6,2.14,2.14,0,0,1,1.3,2.3,2,2,0,0,1-1.9,1.8,30.88,30.88,0,0,1-4.3-.1h-3.3C256.5,225.9,256.5,225.9,256.5,226Z"/><path d="M693.2,439.1l-48.9.9a23.81,23.81,0,0,1-3.8-.1,2,2,0,0,1-1.9-1.8,2.19,2.19,0,0,1,1.8-2.5,18.41,18.41,0,0,1,3.3-.3c8.3-.2,16.6-.3,24.9-.4,16.3-.2,32.6-.5,48.9-.6,8.6,0,17.2.3,25.9.6a9.12,9.12,0,0,1,3.3.5,2.3,2.3,0,0,1,1.2,1.8,2.52,2.52,0,0,1-1.1,1.9,5.19,5.19,0,0,1-2.8.4c-16.9-.2-33.9-.5-50.8-.8Z"/><path d="M632.5,457.3h1.9c13.4-.2,26.9.1,40.3-.9a20.62,20.62,0,0,1,4.3.1,2,2,0,0,1,1.8,1.9,2.09,2.09,0,0,1-1.5,2.2,9,9,0,0,1-2.8.4c-6.9.3-13.7.6-20.6.7-19.5.2-39,.4-58.5.5-3.2,0-6.4,0-9.6-.1a19.27,19.27,0,0,1-2.4-.1,2.46,2.46,0,0,1-2.3-2.1c-.1-1.2.9-2.2,2.5-2.4a12.1,12.1,0,0,1,1.9-.1h45Z"/><path d="M604.5,439.2H586.3a1.63,1.63,0,0,1-1.6-1.5,2,2,0,0,1,1.1-2.4,19.5,19.5,0,0,1,4.2-.8q7.65-.15,15.3,0c4.6,0,9.2.2,13.9.4a11.1,11.1,0,0,1,3.7.8,2.28,2.28,0,0,1,1,1.9,2.83,2.83,0,0,1-1.3,1.8,3.61,3.61,0,0,1-1.8.3l-16.2-.6C604.5,439,604.5,439.1,604.5,439.2Z"/><path d="M705.5,461.7c-1.3-.2-2.6-.3-3.8-.5a1.75,1.75,0,0,1-1.4-2.2c.3-.7.9-1.6,1.4-1.7a54.76,54.76,0,0,1,8.1.1c.5,0,1.1,1.2,1.1,1.8a2.3,2.3,0,0,1-1.2,1.8A20.48,20.48,0,0,1,705.5,461.7Z"/><path d="M646.8,311.3c-15.9.1-29.8-.6-43.7-1.5-5.1-.3-10.2-.3-15.4-.4a9.08,9.08,0,0,1-3.3-.4,2.69,2.69,0,0,1-1.3-1.8,2.52,2.52,0,0,1,1.1-1.9,8.66,8.66,0,0,1,3.2-.6c4,0,8,0,12,.3,28.4,2,56.9,1.7,85.4,1.6,5.6,0,11.2.1,16.8.1a17.61,17.61,0,0,1,3.3.3,1.89,1.89,0,0,1,1.5,2.1,2,2,0,0,1-1.8,2,18.29,18.29,0,0,1-3.3.2c-4.5,0-9-.1-13.4-.1C673.6,311.3,659.2,311.3,646.8,311.3Z"/><path d="M698.1,328.8h-37a2,2,0,0,1-2-1.7,2.21,2.21,0,0,1,1.8-2.5,12.57,12.57,0,0,1,3.3-.5c2.6-.1,5.1-.2,7.7-.2,17.1-.1,34.2-.1,51.3-.3,4,0,8-.2,12-.3a6.78,6.78,0,0,1,3.2.6c.5.2.9,1.3.9,2a1.66,1.66,0,0,1-1,1.4,15.83,15.83,0,0,1-3.8.5C722.6,328.3,710.8,328.5,698.1,328.8Z"/><path d="M612.1,328.7h-23a8.92,8.92,0,0,1-2.8-.3,2.16,2.16,0,0,1-1.7-2.1,2.05,2.05,0,0,1,1.6-2.1,19.67,19.67,0,0,1,2.4-.3H636a6.58,6.58,0,0,1,2.8.4,3,3,0,0,1,1.4,1.7,2,2,0,0,1-1.3,2.2,18.41,18.41,0,0,1-3.3.3c-7.9.1-15.7.1-23.5.2Z"/><path d="M730.6,303.5h5.7c2.1,0,3.1.8,3.1,2.2s-.8,2.1-2.6,2.2c-4.8.3-9.6.5-14.3.7-1.7,0-2.6-.9-2.6-2.2s.9-2,2.6-2.3a19.42,19.42,0,0,1,2.4-.2h5.7Z"/><path d="M901.1,329.1c-19.4.3-38.7.5-58.1.8a11.94,11.94,0,0,1-3.3-.3,2.77,2.77,0,0,1-1.4-1.6,2,2,0,0,1,1.4-2.2,13.51,13.51,0,0,1,2.8-.4c3.7-.2,7.4-.3,11-.4,31.2-.4,62.4-.7,93.6-1.1,3.8,0,7.7-.4,11.5-.6a19,19,0,0,1,3.4-.1,2.21,2.21,0,0,1,2.3,2,2.28,2.28,0,0,1-1.8,2.4,12.25,12.25,0,0,1-1.9.2c-6.2.3-12.5.7-18.7.8-13.6.2-27.2.3-40.8.4Z"/><path d="M881.3,307.7c-12.6-.2-25.2-.5-37.8-.7a5.66,5.66,0,0,1-2.3-.2,2.91,2.91,0,0,1-1.4-1.7,2.6,2.6,0,0,1,1-2,2.73,2.73,0,0,1,1.8-.5c1.1-.1,2.2-.2,3.3-.2,11.8.3,23.6.7,35.4.9,12.3.3,24.6.5,36.9.8a24.18,24.18,0,0,1,4.7.4,1.73,1.73,0,0,1,1.4,2.2,2.69,2.69,0,0,1-1.4,1.7,15.81,15.81,0,0,1-3.8.4c-12.6-.1-25.2-.3-37.9-.5A1.27,1.27,0,0,0,881.3,307.7Z"/><path d="M956.2,307.7c-3.9.3-6.8.5-9.7.6a6.58,6.58,0,0,1-2.8-.4,2.47,2.47,0,0,1-1.2-1.9,3.09,3.09,0,0,1,1.2-1.9c.4-.4,1.2-.4,1.8-.5,5.7-.3,11.5-.5,17.2-.7a15.87,15.87,0,0,1,3.7.6,1.8,1.8,0,0,1,1.2,2.3,2.65,2.65,0,0,1-1.6,1.5,8.83,8.83,0,0,1-2.8.2C960.5,307.7,957.8,307.7,956.2,307.7Z"/><path d="M988.2,329.5h-8.6a2.21,2.21,0,0,1-2.3-2,2.27,2.27,0,0,1,1.9-2.4,18.41,18.41,0,0,1,3.3-.3c4.6,0,9.3.1,13.9.2a6.15,6.15,0,0,1,1.4.1,2.64,2.64,0,0,1,2.1,2.3,2.35,2.35,0,0,1-2.1,2.2c-1.6.1-3.2.1-4.8.1h-4.8Z"/><path d="M993.7,308.6H987a5.87,5.87,0,0,1-2.3-.4,2,2,0,0,1-.4-3.2,5.09,5.09,0,0,1,2.6-.9c4.6-.2,9.3-.2,13.9-.2,2,0,3.1.7,3.3,2s-1.1,2.7-3.2,2.7c-2.4-.1-4.8,0-7.2,0Z"/></g><g id="Card"><path class="cls-1" d="M196.2,277.52c1.9,1.7,4.3,1.9,6.9,1.9q117.75-.3,235.6-.5c3.9,0,4.6,1,4.5,4.3v1.9q.3,66,.7,132a6.53,6.53,0,0,1,0,1.4,2.56,2.56,0,0,1-2,2.4c-.5.1-.9.1-1.4.2h-2.4l-136.7,1.2-102.2.9c-1.6,0-3.2,0-4.8-.1a2.15,2.15,0,0,1-2-2.3c0-1.8.1-3.5.1-5.3q.45-66,1-132c0-1.1,0-2.2.1-3.4S194.5,277.92,196.2,277.52Z"/><path d="M317.3,424.62l-119.5.9c-1.6,0-3.2.1-4.8,0-3.2-.2-4.3-1.3-4.5-4.4v-2.9q.9-67.65,1.7-135.3c0-1.3,0-2.6.1-3.8a3.5,3.5,0,0,1,3.4-3.4,38.46,38.46,0,0,1,4.8-.1q71.7.45,143.5.8,48.45.3,96.9.4c1.4,0,2.9,0,4.3.1,1.7.2,2.5,1.1,2.7,2.9a19.22,19.22,0,0,1,0,2.4q.3,67.65.5,135.3c0,5.9-.2,6.1-6.3,6.1q-61.35.45-122.8,1Zm-124.1-4.2a21.59,21.59,0,0,0,2.9.3q122.1-.9,244.3-2c.3,0,.5-.3,1.1-.6.1-1.5.2-3.2.2-5-.1-39.4-.2-78.7-.3-118.1,0-3.5,0-7-.1-10.6a20.73,20.73,0,0,0-.5-3c-1.8-.1-3.3-.2-4.9-.2q-117.6-.6-235.2-1.3a28.05,28.05,0,0,0-2.9,0c-.9.1-1.8.3-2.9.5C194.3,327.32,193.8,373.62,193.2,420.42Z"/><path d="M289.8,315.12H233.2a31,31,0,0,1-4.3-.2,2,2,0,0,1-1.8-1.9,2.17,2.17,0,0,1,1.5-2.2,10.62,10.62,0,0,1,1.9-.4c1.1-.1,2.2,0,3.4-.1l112.8-.9h3.8a2.73,2.73,0,0,1,1.8.5,3.41,3.41,0,0,1,1.1,1.9,2.38,2.38,0,0,1-1.2,1.8,15.33,15.33,0,0,1-4.3.4l-58.1.6Z"/><path d="M413.4,386.22a28.52,28.52,0,0,1,3.3-2.3,10.35,10.35,0,0,1,13.1,1.9,10.53,10.53,0,0,1,.8,12.9,10.33,10.33,0,0,1-12.7,3.6,19.38,19.38,0,0,1-3.1-1.7,32.12,32.12,0,0,1-3,2.1,10.47,10.47,0,0,1-13.2-1.6,10.14,10.14,0,0,1-1.1-12.8,10.33,10.33,0,0,1,12.7-3.9C411.1,384.92,412.1,385.52,413.4,386.22Zm-1.6,8.1a5.72,5.72,0,0,0-5.6-5.9,5.78,5.78,0,0,0-5.8,5.7,5.62,5.62,0,0,0,5.4,5.6A5.71,5.71,0,0,0,411.8,394.32Zm4.7-1.6c0,3.4,2.2,5.8,5.6,5.8a5.72,5.72,0,0,0,5.7-5.8,6,6,0,0,0-5.5-5.6C419.6,386.92,416.1,389.42,416.5,392.72Z"/><path d="M265.7,338.42c-9.4.2-18.8.5-28.2.7a15.83,15.83,0,0,1-3.8-.3,2.5,2.5,0,0,1-1.3-1.7,3.23,3.23,0,0,1,1-1.9,3.51,3.51,0,0,1,1.8-.6c1.1-.1,2.2-.2,3.3-.2,18.8-.5,37.7-1.1,56.5-1.6a18.29,18.29,0,0,1,3.3.2,2,2,0,0,1,1.6,2.1,2.13,2.13,0,0,1-1.8,2,24.33,24.33,0,0,1-3.8.3c-9.4.3-19,.6-28.6,1Z"/><path d="M342.3,335.92c-7.4.4-14.9.7-22.4,1.1a12,12,0,0,1-3.8-.1,2.25,2.25,0,0,1-1.4-1.7,2.38,2.38,0,0,1,.9-2,11.62,11.62,0,0,1,4.1-.9c7.3-.4,14.7-.8,22-1,8.5-.2,16.9-.1,25.4-.1a14.15,14.15,0,0,1,2.9.2,1.88,1.88,0,0,1,1.7,2,1.83,1.83,0,0,1-1.5,2.1,23.4,23.4,0,0,1-3.8.3C358.4,335.92,350.4,335.92,342.3,335.92Z"/><path d="M255.8,362.92H235.3c-2-.1-3.1-.9-3.2-2.2s1-2.3,2.9-2.4h1.4c13.4-.1,26.8-.1,40.1-.2a8.61,8.61,0,0,1,2.8.3,3.35,3.35,0,0,1,1.5,1.6,1.72,1.72,0,0,1-1.3,2.2,15.68,15.68,0,0,1-3.7.5H255.7C255.8,362.82,255.8,362.82,255.8,362.92Z"/><path d="M378.8,315.42h-9.1c-.5,0-1.1.1-1.4-.1a4.63,4.63,0,0,1-1.6-1.5,1.68,1.68,0,0,1,1.1-2.3,12.1,12.1,0,0,1,3.7-.7c5.6-.2,11.2-.2,16.8-.3a6.92,6.92,0,0,1,2.8.5,1.84,1.84,0,0,1,1.2,2.3,3.12,3.12,0,0,1-1.6,1.6,13.33,13.33,0,0,1-2.8.3h-9.1Z"/><path d="M389.5,337.22a28.72,28.72,0,0,1-4.4-.4,2,2,0,0,1-1.6-2.1,2.94,2.94,0,0,1,1.3-1.8,2.73,2.73,0,0,1,1.8-.5,54.19,54.19,0,0,1,5.7,0,3.41,3.41,0,0,1,2.2.7,2.46,2.46,0,0,1,.9,1.9,2.83,2.83,0,0,1-1.3,1.7A27.9,27.9,0,0,1,389.5,337.22Z"/><path d="M407.8,316.12a12.82,12.82,0,0,1-2.7-.5,2.09,2.09,0,0,1-1.5-2.2,2.23,2.23,0,0,1,1.8-2,6.27,6.27,0,0,1,5,.7,2.65,2.65,0,0,1,1.1,1.9,1.85,1.85,0,0,1-1.7,1.9A6.8,6.8,0,0,1,407.8,316.12Z"/></g><g id="Woman1"><path class="cls-1" d="M106.3,669.4c-1.1,1-1.8,1.4-2.3,2-3.9,5.4-7.9,10.9-11.7,16.4-.8,1.2-1.5,2.5-2.2,3.7a11.16,11.16,0,0,0-1.4,7.4,54.81,54.81,0,0,1,.5,5.7,25.31,25.31,0,0,0,2.2,9.3,14.26,14.26,0,0,1,.9,2.7,2.33,2.33,0,0,1-2.6,2.6,4,4,0,0,1-1.8-.7c-6.4-4.5-12.8-9.1-19.1-13.7-.8-.6-1.4-1.3-2.1-1.9a6.57,6.57,0,0,1-1.9-7,27.4,27.4,0,0,1,1.5-4c5.3-12.5,10.5-25,15.9-37.5a73.6,73.6,0,0,1,10.2-17.3c.9-1.1,1.7-2.3,2.7-3.4,1.9-2,2.4-4.1,1.8-7a244.37,244.37,0,0,1-4.6-29.3c-.1-1.4-.3-2.9-.3-4.3a2.21,2.21,0,0,1,2.8-2.4,12.38,12.38,0,0,0,4.7,0c4.6-.5,9.2-.8,13.9-1.2,6.1-.5,12.1-1,18.2-1.4,1.4-.1,2.9-.3,4.3-.4,5.4-.4,10.8-.7,16.3-1.1a16.09,16.09,0,0,1,3.8,0,2.24,2.24,0,0,1,1.7,2.9c-.3.7-.7,1.5-1,2.2A337.47,337.47,0,0,1,136,625.1a5.64,5.64,0,0,0-.9,5c1.4,6.9,2.7,13.8,4.2,20.7,2.4,10.9,4.8,21.8,7.4,32.7,1.7,7,2.6,14.1,3.7,21.2,1.2,7.7,2.8,15.4,4.2,23.1.1.8.5,1.5.6,2.3a5.78,5.78,0,0,0,3.9,4.5c2.3.8,4.5,1.7,6.7,2.6l9.3,3.9a21.16,21.16,0,0,1,2.1,1.1,2.36,2.36,0,0,1,1.2,2.4,2.13,2.13,0,0,1-1.9,1.9,13.33,13.33,0,0,1-2.8.3c-11.3,0-22.7.1-34,.1-3.7,0-4.8-1.1-5.4-4.7a38.46,38.46,0,0,1-.8-4.7c-.4-5.5-2.2-10.6-4.4-15.6-3.6-8.2-7.4-16.3-11.1-24.4-1.1-2.4-3.2-4.6-1.2-7.5.2-.3,0-1-.1-1.4C113.4,682.1,110.2,675.9,106.3,669.4Z"/><path class="cls-1" d="M131.8,370.8a65.89,65.89,0,0,0,6.4-2.5c5.3-2.7,11-4.2,16.7-5.7,6-1.6,12.1-2.9,18.2-4.1a37.23,37.23,0,0,1,5.7-.8,9.06,9.06,0,0,0,6.9-3.7c2-2.5,4.2-4.8,6.4-7.1a50.22,50.22,0,0,1,13.5-9.8c2.3-1.2,4.6-1.6,6.5.6a4,4,0,0,0,3.4,1.3,6.68,6.68,0,0,1,5,2.4,6.18,6.18,0,0,1,.8,8.3,21.69,21.69,0,0,1-3.5,3.9A144.44,144.44,0,0,0,204.1,367a34.45,34.45,0,0,1-9,7.1c-8.9,5-17.7,10.2-27.1,14.3a57,57,0,0,1-9,3.3,109.69,109.69,0,0,0-13.8,5.4,62.39,62.39,0,0,1-9.4,3.5,17.31,17.31,0,0,1-15.1-2.3c-3.3-2.3-6.6-4.6-9.1-7.8-4.6-5.7-9-11.6-13.5-17.4-.9-1.2-1.7-2.4-1.1-4a3.17,3.17,0,0,0-.7-3.1l-2.4-3.6A263.93,263.93,0,0,1,79.8,339a8.42,8.42,0,0,1-.8-2.7,2.14,2.14,0,0,1,2.1-2.2c3.2.6,6.4-.2,9.5-.4,5.8-.2,11.5.8,17.2,1.3a10.61,10.61,0,0,1,8.2,5.2c1.6,2.6,3,5.2,4.4,8s2.6,5.8,4.1,8.7C126.9,361.6,129.3,366,131.8,370.8Z"/><path class="cls-1" d="M148.8,251c-.9,2.3-1.7,4.5-2.7,6.7-1.2,2.7-2.2,3.2-4.9,2.5-4.6-1.3-9.2-2.7-13.8-4.1-1.8-.6-2.5-1.7-2.3-3.7.3-2.7.9-5.4,1.4-8s1-5,1.4-7.5a3.75,3.75,0,0,0-.1-.8,5,5,0,0,0-1-1.3c-4.7-3.4-2.9-12.6,1-15.9a3.86,3.86,0,0,1,3.5-1.1,5.51,5.51,0,0,0,3.6-.8c7.9-3.9,15.8-7.7,23.7-11.5a25.79,25.79,0,0,1,10.6-2.9c5.6-.1,9.1,2.8,9.6,8.4a58.15,58.15,0,0,1-2.2,22.3,29.17,29.17,0,0,1-8.6,13.1,18.64,18.64,0,0,1-14,5.1C152.4,251.3,150.7,251.1,148.8,251Z"/><path class="cls-1" d="M302.8,277.4a54.82,54.82,0,0,1-6.4-.9c-2.1-.5-2.7-2.4-1.3-4a17.52,17.52,0,0,1,4.8-3.8,30.08,30.08,0,0,1,17.2-3c4.5.5,8,3,10.7,6.6a6.92,6.92,0,0,1,1.1,6.8,34.12,34.12,0,0,1-2.2,4.8c-1.4,2.4-2.1,2.6-5,1.4a8.11,8.11,0,0,0-1.1-.3,55.83,55.83,0,0,1-3.7,4.8c-3.5,3.9-6.4,3.7-9.1-.8a85.81,85.81,0,0,1-3.7-8.2C303.6,279.6,303.2,278.4,302.8,277.4Z"/><path class="cls-3" d="M83.15,338.1c.3,4.6.5,8.5.8,12.7,1.9,1.3,2.7,3.6,3.7,5.7a74.56,74.56,0,0,0,5.1,9.2c2.5,3.9,5.3,7.6,7.9,11.5.5.8,1.1,1.6,1.5,2.4a2.36,2.36,0,0,1-1.9,3.2,6.08,6.08,0,0,1-1.9-.1c-5.2-1-10.3-2-15.5-3.1-3.6-.8-4.5-1.8-4.3-5.7.2-5.8.6-11.5.7-17.3.1-4.8-.3-9.6-.5-14.4-.1-1.3-.4-2.5-.6-4-2.2-.9-4.4-1.8-6.6-2.8-2.7-1.3-3.4-2.5-2.9-5.3,2.5-13.7,5.6-27.2,10.7-40.2a84.85,84.85,0,0,1,4.1-8.6,27.44,27.44,0,0,1,16.6-13.6c4.9-1.5,9.8-2.9,15.1-4.6,1-2.3,2.2-4.9,3.2-7.5a8,8,0,0,1,4.5-5c3.5,1.1,6.8,2.2,10.2,3,3.1.7,6.3,1.1,9.4,1.6a27,27,0,0,0,2.8.4c3.2.4,5.9,1.5,6.6,5.4a39.1,39.1,0,0,0,3.9-.7c3.4-.7,6.9-1.5,10.4-1a24.72,24.72,0,0,1,16.8,9.2c2.2,2.7,4.1,5.7,6.1,8.6a8.83,8.83,0,0,1,1.6,5.9c-.1,5.6-.2,11.2-.2,16.8-.1,7.4-.1,14.7-.2,22.1,0,1.4,0,2.8-1.4,3.8a4.8,4.8,0,0,0-1.1,2.5c-.4,1.7-.5,3.5-.9,5.2-1.7,7.4-6.1,12.9-12.3,17l-2.1,1.2c-7,4-7,4-11.3,9.6-3.2.8-6,1.7-9,2.4-4,.9-8.1,1.7-12.2,2.5-2.3.5-4.7,1-7.1,1.4s-3.2.1-4.2-2.1c-2.8-5.7-5.5-11.5-8.2-17.3-1.2-2.6-2.3-5.3-3.5-8.1-2.9-.5-5.7.1-8.6,0-2.7-.1-5.4-.1-8.1-.3-2.9-.2-5.7-.7-8.6-1C89.25,338.5,86.55,338.4,83.15,338.1Z"/><path d="M101.21,380.59a22.86,22.86,0,0,0-1.3-2.5c-7.2-10.6-13.1-22-19.1-33.3-1.3-2.4-2.5-4.8-3.8-7.2a5.15,5.15,0,0,1-.9-2.2,2.28,2.28,0,0,1,1-1.9c.5-.3,1.8-.4,2.1,0a15,15,0,0,1,2.8,3.8c2.8,5.2,5.5,10.5,8.3,15.7a210.54,210.54,0,0,0,18.2,29.3q2.85,3.9,6,7.5c6.1,7.1,14,9.3,22.9,7.7a58.42,58.42,0,0,0,12.3-3.8,178.16,178.16,0,0,0,23.2-11.4c7.2-4.2,14.5-8.1,21.7-12.2a18.19,18.19,0,0,0,3.8-2.9c5.9-5.2,11.7-10.4,17.5-15.7,1.2-1.1,2.7-2.2,3-4a1.11,1.11,0,0,0-1.8,0c-1.9,1.5-3.7,3-5.5,4.6-.7.6-1.3,1.4-2,2.1a2.34,2.34,0,0,1-3,.4c-1-.7-1.2-2-.2-3.4a13.22,13.22,0,0,1,2.2-2.6c2.3-2,4.7-3.8,7.1-5.7a14.32,14.32,0,0,1,2.2-1.5c-.6-1.4-1.5-1-2.1-.8a21.15,21.15,0,0,0-7.6,4.9c-1,.9-1.8,1.8-2.8,2.7-1.2,1.1-2.5,1.3-3.5.5s-1-2.3.3-3.8c1.5-1.6,3.2-3.1,4.9-4.6.9-.8,1.9-1.5,3.6-2.8a18,18,0,0,0-2.4,0,3.1,3.1,0,0,0-1.3.6c-7.4,4.8-14.5,10-19.2,17.8-.3.5-.8,1-1.1,1.5-13.1,1.6-25.8,4.9-38.5,8.3a97.38,97.38,0,0,0-19.6,7.7,4.69,4.69,0,0,1-2.2.9,2.7,2.7,0,0,1-2.1-.7,1.87,1.87,0,0,1,0-2.6c1-1,2.1-1.8,3.4-2.9-.5-1-.8-2.1-1.3-3-3.7-7.1-7.5-14.1-11.2-21.2a57.66,57.66,0,0,1-2.7-5.6,2,2,0,0,1,1.4-2.6,2.86,2.86,0,0,1,2.2.6,7.48,7.48,0,0,1,1.5,2.4c4.6,8.6,9.1,17.2,13.7,25.9.3.5.7,1,1.2,1.7,16.6-6.6,34-10.1,51.6-13.5,4.2-6.4,9.9-11.3,16-15.7a47.17,47.17,0,0,1,6.1-3.7c2.8-1.4,5.6-1.4,8.1.5a7.54,7.54,0,0,0,4.3,1.8,2.61,2.61,0,0,1,1.7.7c.7.6,1.7,1.3,1.8,2.1.4,2.6,3.1,4.2,2.7,7a9.75,9.75,0,0,1-1.6,4.4,26.82,26.82,0,0,1-4.7,5.4c-5.3,4.9-10.7,9.7-16,14.5a44,44,0,0,1-9.5,6.4c-5.5,2.8-10.9,6.1-16.3,9.1-5.2,2.8-10.5,5.5-15.7,8.3-1.1.6-2.2,1.2-3.6,1.9-.3,3.5-.8,7-.9,10.5a309.7,309.7,0,0,0,2.5,52.7c1.5,10.8,2.7,21.6,4,32.4,1.2,9.4,2.4,18.7,3.4,28.1,1.6,15.1,2.4,30.3.5,45.5a89.49,89.49,0,0,1-5.1,19.9,3.5,3.5,0,0,1-.9,1.7c-3.5,3.8-5.4,8.6-8,13-4.4,7.6-8.5,15.4-13,23a12.42,12.42,0,0,0-1.4,9.6c3.3,15.6,6.4,31.3,9.7,47s5.9,31.4,8.3,47.2c.2,1.6.6,3.1.9,4.9,2.9,1.1,5.7,2.1,8.5,3.2,3.9,1.5,7.7,3.1,11.5,4.7a21.16,21.16,0,0,1,2.1,1.1c1.3.8,2.4,1.7,2.4,3.3,0,1.4-1.1,2.7-3.1,3.2a24.3,24.3,0,0,1-4.7.8c-3.4.2-6.7.2-10.1.2-7.8,0-15.7,0-23.5-.1-6.1,0-7.2-1-8.3-6.9a19.31,19.31,0,0,0-1.2-4.1c-8.8-19.9-16.5-40.2-24.4-60.5-.2-.6-.5-1.1-.9-2.1a9.69,9.69,0,0,0-1.8,1.6l-13.2,18.3a4.63,4.63,0,0,0-.7,4.5c1.7,5.8,3.4,11.7,5.1,17.5a22.21,22.21,0,0,1,.9,3.7,2.17,2.17,0,0,1-2.5,2.3,6,6,0,0,1-2.3-.6,34.08,34.08,0,0,1-6-3.1c-5.3-3.8-10.6-7.7-15.8-11.7-1.9-1.5-3.5-3.3-5.2-4.9-2.8-2.6-3.6-5.5-1.8-9.1,1.1-2.1,2.1-4.3,3-6.5s1.9-4.4,2.8-6.6c2.9-7.3,5.8-14.6,8.7-21.8a117.94,117.94,0,0,1,13.3-23.8,9.13,9.13,0,0,0,1.8-7.5c-1.4-8.4-2.4-16.8-3.4-25.2-.3-2.1-.3-4.1-.4-6.2s-.1-4.1-1.5-5.9a10.2,10.2,0,0,1-1.2-3.6,111.51,111.51,0,0,0-7.8-20.1c-4.8-9.6-9.4-19.2-14-28.9-2.3-4.9-4.3-10-6.4-15-5-11.8-7-24.2-7.6-36.9a146.76,146.76,0,0,1,5.3-47.5c1.1-4,2.1-8,3.3-12A168.36,168.36,0,0,1,68.61,397c2.4-4.9,4.6-9.8,7-14.7a8.42,8.42,0,0,1,1.1-2.1,4.15,4.15,0,0,1,4.9-2.1c3.7.8,7.5,1.5,11.3,2.1A71,71,0,0,0,101.21,380.59Zm44.7,362.1c1.7-2.6,3.2-5.1,4.9-7.4a8.2,8.2,0,0,0,1.7-6.7c-2.1-12.1-3.8-24.3-6.2-36.4-3.4-17.4-7.2-34.7-10.6-52.1-2.8-14.3-5.2-28.6-7.8-42.9a23.41,23.41,0,0,0-.9-3.3c-3.8,0-7.5.2-11.2,0s-7.3-.7-11-1.1-7.3-.8-11.2-1.2a30.23,30.23,0,0,0-.3,4c.5,6,1,12.1,1.8,18.1a209.15,209.15,0,0,0,9.1,40.6c8.1,24.3,17.9,47.9,27.4,71.6,2.2,5.4,5.4,10.5,6,16.5C140.51,743.09,143,742.79,145.91,742.69Zm-51.6-105.5c-.8,1-1.3,1.4-1.6,1.9-2.7,4.7-5.8,9.2-8.1,14.1-4,8.9-7.5,17.9-11.3,26.9-1.2,2.8-2.3,5.6-3.6,8.4a45.48,45.48,0,0,0-3.3,7.9,29.81,29.81,0,0,0,7.4,7.2c.9-1.2,1.6-2.2,2.3-3.3a18.12,18.12,0,0,1,7.4-6.6,12.08,12.08,0,0,0,4.9-4.3c4.4-6.2,9-12.4,13.5-18.6.7-1,1.3-2.1,1.8-2.9C100.61,657.59,97.61,647.69,94.31,637.19Zm42.1-18.6c4.1-5.8,14.7-24.7,15.8-28.2a2.92,2.92,0,0,0-.9-.2l-17.5,2.7a9.09,9.09,0,0,0-1.8.8C133.51,601.79,134.91,609.79,136.41,618.59Zm-58.5,88c6,5.3,8.9,7.2,11.8,7.8-.5-1.9-1-3.8-1.4-5.6s-.9-3.4-1.4-5.1-.6-3.7-2-5.3C81.41,700.29,79.61,703.29,77.91,706.59Zm95.8,36.1a75.3,75.3,0,0,0-17.2-6.6c-1.8,1.8-3.7,3.6-4.1,6.8C159.31,742.79,165.91,743.39,173.71,742.69Z"/><path d="M134.71,181.19c4.3-1.8,8.1-3.6,12.2-4.2,7.4-1.2,11.7-.1,17.4,5.1,1.3,0,2.9-.1,4.5,0a20.88,20.88,0,0,1,12,4.3c5.1,3.9,6.8,9.1,5.7,15.3a10.45,10.45,0,0,1-3.9,6.4,4.86,4.86,0,0,0-1.8,4.2,80.88,80.88,0,0,1-2.2,19,46.32,46.32,0,0,1-2.7,8.2c-4.5,10.3-15.7,14.5-23.6,12.2a11.24,11.24,0,0,0-2-.2,22.11,22.11,0,0,0-1.5,5.6,25.4,25.4,0,0,1-1,3.7,1.89,1.89,0,0,1-2.4,1.1,2.39,2.39,0,0,1-1.4-1.7,20.75,20.75,0,0,1,.3-4.3c.3-2,.7-4.1,1-6.2-1.1-.7-2-1.3-3-1.9-1.2-.7-2.5-1.4-3.7-2.2-1.4-.9-1.8-2.1-1.3-3.2.6-1.3,1.9-1.5,3.7-.6,1.1.6,2.2,1.3,3.4,1.9,2.3,1.1,4.6,2.1,7,3.1,7.1,2.7,16-.4,20.1-8.6a28.76,28.76,0,0,0,2.8-9.6c-.8-.8-1.5.1-2.2.2-1.4.1-2.4-.3-2.8-1.3a3.54,3.54,0,0,1,.8-4,2.25,2.25,0,0,1,2.7-.3c.6.3,1.1.7,1.6,1,.3-.2.7-.4.7-.6a61.29,61.29,0,0,0,.7-14.3c-3.2-1.7-6.3-3.5-9.8-5.4-.8.9-1.5,1.9-2.3,2.9-5.9,7.2-13.6,11.5-22.5,13.9a12.9,12.9,0,0,1-8-.2c-2.6-1-5.7.8-6.9,3.6-1.3,3-.4,5.7,2.6,7.2l.9.3c2.6,1.3,2.9,2.1,1.2,4.3a8.9,8.9,0,0,0-1.4,3.5c-.9,4.1-1.8,8.1-2.7,12.2a10.5,10.5,0,0,1-.8,2.3,2.08,2.08,0,0,1-2.4,1.1,2.25,2.25,0,0,1-1.6-2.2,13.73,13.73,0,0,1,.5-2.8c.6-2.6,1.1-5.3,1.7-8.1-4.7-5.7-8.6-11.7-9.8-19a43.5,43.5,0,0,1,1.7-20.6c-8.5-5.1-18.8-2-22.9,6.6a35.75,35.75,0,0,0-2.9,12.1c-.2,2.4-.2,4.8-.4,7.2A25.28,25.28,0,0,1,71.21,251a21.62,21.62,0,0,1-5.7.3,12.85,12.85,0,0,1-2.5-.4c-.2,2-.4,3.7-.6,5.4A21.71,21.71,0,0,1,45.51,275a21.72,21.72,0,0,1-15.4-1.9c-6.5-3.5-9.8-9.1-9.6-16.4.1-6.5,2-12.3,7.3-16.6a10,10,0,0,0,1.3-1.5c-.6-.9-1.1-1.7-1.6-2.5-7.1-11.1-1.6-24.4,6.5-29.7a32.71,32.71,0,0,1,21.9-5.3c2.7.3,5.4.5,8.1.7a10.37,10.37,0,0,0,9.4-4.8,42.51,42.51,0,0,0,3.5-6.3c1.6-3.3,3-6.7,4.6-10a28.05,28.05,0,0,1,8-10.1c8.9-6.9,18.6-7.9,28.8-3.2a36.81,36.81,0,0,1,13.7,11.1A8.64,8.64,0,0,1,134.71,181.19Z"/><path d="M300.11,271.19c-1,1.1-1.8,1.9-2.6,2.9a6.9,6.9,0,0,1-1.6,1.8,2.82,2.82,0,0,1-2.2.1,2.42,2.42,0,0,1-1-1.9,4.53,4.53,0,0,1,.8-2.2,15.55,15.55,0,0,1,6.6-6.1c8.7-4.3,17.3-3.7,25.8.6a16.09,16.09,0,0,1,4.1,3.3,8.94,8.94,0,0,1,2.2,8.9c-1.5,4.8-4.4,8.6-9.5,10a8.81,8.81,0,0,0-4.2,2.1c-.9.8-2.3,1.1-3.3,1.8-2.4,1.7-5.1.8-6.7-1.4a32.76,32.76,0,0,1-3.9-7.1C302.91,279.79,301.61,275.59,300.11,271.19Zm3.1-2a32.27,32.27,0,0,1,2.4,4c.9,2.1,1.4,4.3,2.2,6.3a62.86,62.86,0,0,0,3.2,7c.2.4.9.7,1.8,1.3a11.57,11.57,0,0,0,.4-2.7c-.1-2.2-.4-4.4-.6-6.7a18.29,18.29,0,0,1-.2-3.3,1.82,1.82,0,0,1,2-1.7,2.9,2.9,0,0,1,2,1.1,5.68,5.68,0,0,1,.7,2.2c.3,1.7.6,3.4,1.1,6l1.6-3.2c.5-1.2.7-2.4,1.2-3.6a2.22,2.22,0,0,1,2.6-1.5,2.36,2.36,0,0,1,1.6,2.6c-.3,1.5-.7,3-1.1,4.7a6,6,0,0,0,.5-10.8C317.81,266.79,310.81,266.19,303.21,269.19Z"/><path d="M163.31,230.09c-3.2-3.4-1.9-7-.4-10.6a2,2,0,0,1,2.3-1.2,2.22,2.22,0,0,1,1.8,2.4c0,.3-.1.6-.1.9-.1.5-.3.9-.4,1.4a4.16,4.16,0,0,0,.6,4c1.8,2.2,1.3,4.5-.4,6.5a17,17,0,0,1-3.1,2.9,1.7,1.7,0,0,1-2.5-.5,2.93,2.93,0,0,1-.4-2.2A35.57,35.57,0,0,1,163.31,230.09Z"/><path d="M149.61,234a12.91,12.91,0,0,1,.6-2.6,2.14,2.14,0,0,1,2.3-1.3,2,2,0,0,1,1.8,2c.1,1.1-.1,2.2,0,3.3a3.1,3.1,0,0,0,2.7,2.9,27.41,27.41,0,0,1,2.8.5,2.36,2.36,0,0,1,1.2,1.4,2.63,2.63,0,0,1-.8,2,5,5,0,0,1-2.7.8C152.71,242.89,149.71,239.69,149.61,234Z"/><path d="M158.51,220.09a3.36,3.36,0,0,1-3.2,3.5,2.63,2.63,0,0,1-2.6-2.8c0-2.1,1.2-3.7,2.8-3.8A3.16,3.16,0,0,1,158.51,220.09Z"/><path d="M135.81,226.29a5.8,5.8,0,0,1-1.3,1.5,1.92,1.92,0,0,1-1.8-.1A17.24,17.24,0,0,1,130,225a2.11,2.11,0,0,1,2.8-3A4.52,4.52,0,0,1,135.81,226.29Z"/></g><g id="Accent"><path d="M484.9,767.5H94.3c-1.8,0-3.5,0-5.3-.1a2.28,2.28,0,0,1-2.11-2.2,2.37,2.37,0,0,1,1.81-2,38.66,38.66,0,0,1,4.8-.3h55.7l726,.3c1.9,0,3.8,0,5.8.1,1.8.1,2.6,1,2.5,2.3s-.9,1.9-2.7,2.1a12.1,12.1,0,0,1-1.9.1h-394Z"/><path d="M30.8,554.3c-1.3.8-2.3,1.6-3.4,2.2-6.3,3.4-13,.2-14.1-6.8a15.55,15.55,0,0,1,.2-5.7c.9-4.3,4.2-6.5,8.5-5.7a32.78,32.78,0,0,1,5,1.7,17.31,17.31,0,0,1,2.8,1.6,9.68,9.68,0,0,0,.4-2.6,42,42,0,0,0-2.8-13.1c-1.8-4.8-3.8-9.5-5.8-14.2-2.4-5.7-4.9-11.5-7.3-17.2a56.49,56.49,0,0,1-3.7-29.6A37.76,37.76,0,0,1,15.7,450a22.16,22.16,0,0,1,3.7-4.4,3.46,3.46,0,0,1,2.6-.7,2.94,2.94,0,0,1,1.8,1.3c.2.6.1,1.8-.4,2.1-7,6-8.2,14.2-8.6,22.6A49.85,49.85,0,0,0,19,493.4c2.6,6,5.2,12,7.7,18.1,2,4.7,4,9.4,5.7,14.3,2.3,6.7,3.5,13.6,1.9,20.8a7.08,7.08,0,0,0,.4,3.2c5.1,14.8,3.6,29-3.7,42.6-2.2,4.1-4.6,8-7.1,12a17.55,17.55,0,0,1-2.4,3,2.3,2.3,0,0,1-3.1.1c-1-.9-1.4-2.5-.5-3.4,4.5-4.9,7.4-10.8,10.3-16.7,4.9-10,5.8-20.5,3.4-31.3l-.3-.9C31.4,554.9,31.2,554.8,30.8,554.3ZM28.4,548a8.58,8.58,0,0,0-4.3-4.3c-1.6-.7-3.3-1.7-4.9-.5s-1.6,3.3-1.4,5.2a7.37,7.37,0,0,0,.4,1.4,4.56,4.56,0,0,0,6.9,2.6A6.25,6.25,0,0,0,28.4,548Z"/><path d="M1007.5,8c1.1-1.1,2-2,2.8-2.9,1.2-1.3,2.2-2.7,3.5-4s2.4-1.3,3.8-.2c1.6,1.3,3.1,2.7,4.7,4.1,1.2,1,2.4,2,3.8,3.2,1-1.2,1.8-2.1,2.5-3.1,1-1.3,1.8-2.6,2.8-3.9a2.56,2.56,0,0,1,3.8-.6c4,2.9,7.9,6,11.8,9a3.74,3.74,0,0,1,.6.7,4.1,4.1,0,0,1,0,2.2,1.75,1.75,0,0,1-2.4.9,21.37,21.37,0,0,1-3.2-2c-2.6-1.8-5-3.9-7.9-5.7-1.1,1.4-2,2.7-3,4s-1.6,2.4-2.6,3.5a2.46,2.46,0,0,1-3.8.3c-1.5-1.2-2.9-2.5-4.3-3.8s-2.8-2.5-4.5-3.9c-1.4,1.7-2.8,3.1-3.9,4.6-3.4,4.5-4.9,4.6-8.5.4-1.2-1.4-2.6-2.7-3.8-4-1.9.4-2.5,1.9-3.4,2.9-1.7,1.9-3.2,4-4.9,5.8a2,2,0,0,1-3,.1A2,2,0,0,1,988,13a8.64,8.64,0,0,1,1-1.6c2.4-3,4.7-6,7.2-9,2.2-2.7,3.3-2.6,5.8-.1C1003.9,4.1,1005.6,6,1007.5,8Z"/><path d="M15.4,629.3A7.69,7.69,0,0,1,7.5,637,7.58,7.58,0,0,1,0,629.4a7.73,7.73,0,0,1,7.4-7.8A7.9,7.9,0,0,1,15.4,629.3Zm-4.8.2a3,3,0,0,0-2.9-3.1,2.89,2.89,0,0,0-2.9,3.1,2.84,2.84,0,0,0,2.7,2.8A2.87,2.87,0,0,0,10.6,629.5Z"/><path d="M157.9,119.9a13.12,13.12,0,0,1-.6,2.5c-2.2,5.1-4.4,10.2-6.7,15.3a2.18,2.18,0,0,1-.5.8,2.34,2.34,0,0,1-2.8,1.2A2.16,2.16,0,0,1,146,137a6.36,6.36,0,0,1,.6-1.8c2.2-4.9,4.3-9.9,6.5-14.8.3-.6.6-1.3,1-1.5a2.85,2.85,0,0,1,2.2-.4C157,118.6,157.4,119.4,157.9,119.9Z"/><path d="M133.5,127.8v6.7a13.33,13.33,0,0,1-.3,2.8,1.75,1.75,0,0,1-2.2,1.3,4,4,0,0,1-1.8-1.4,2.09,2.09,0,0,1-.3-1.4c0-5.3-.1-10.5,0-15.8a3.23,3.23,0,0,1,.7-2.2,3,3,0,0,1,2-1,2.74,2.74,0,0,1,1.7,1.3,5.83,5.83,0,0,1,.3,2.3c0,2.6-.1,5-.1,7.4Z"/><path d="M120.4,139.8c0,1.8-.8,2.7-1.9,2.8a2,2,0,0,1-2.2-1.4,5.73,5.73,0,0,1-.4-1.4L112,125.1a6.17,6.17,0,0,1-.2-2.3,1.88,1.88,0,0,1,1.9-1.8,4.79,4.79,0,0,1,2.1.9c.2.1.3.5.4.8,1.4,5.1,2.7,10.1,4,15.2C120.3,138.7,120.3,139.5,120.4,139.8Z"/><path d="M1199.3,424.3c-.4-.4-1.3-1-1.6-1.7-.2-.5.3-1.5.7-2.1a5.1,5.1,0,0,1,2-1.2c4.2-1.8,8.5-3.6,12.8-5.4a12.09,12.09,0,0,1,1.8-.5,2.36,2.36,0,0,1,2.5,1.8,2.13,2.13,0,0,1-.9,2.5c-5.4,2.3-10.9,4.5-16.4,6.7A2,2,0,0,0,1199.3,424.3Z"/><path d="M1246.2,773.3c-1.4-.2-2.4-.1-3-.5a3,3,0,0,1-1.2-1.9,1.82,1.82,0,0,1,.8-1.6,5.28,5.28,0,0,1,2.2-.8c4.6-.7,9.2-1.4,13.7-2.1a26.42,26.42,0,0,1,2.9-.2,2.27,2.27,0,0,1,2.2,2.1,1.9,1.9,0,0,1-1.6,2.1C1256.6,771.5,1251.1,772.5,1246.2,773.3Z"/><path d="M1211.6,437.1h-5.3a19.27,19.27,0,0,1-2.4-.1,2.43,2.43,0,0,1-2.1-2.2,2.36,2.36,0,0,1,2.2-2.2,7.08,7.08,0,0,1,1.4-.1c4.3,0,8.6-.1,12.9-.1a6.28,6.28,0,0,1,1.9.3,2.13,2.13,0,0,1,1.6,2.1,2.23,2.23,0,0,1-1.7,2.1,9.74,9.74,0,0,1-2.4.2Z"/><path d="M1209.9,400.2a4.41,4.41,0,0,1-1,1.7c-3.6,3.2-7.2,6.3-10.9,9.4-1.3,1.1-2.6,1.2-3.5.4s-.9-2.5.4-3.8c3.5-3.3,7.1-6.4,10.7-9.6a5.31,5.31,0,0,1,1.7-.8A2.32,2.32,0,0,1,1209.9,400.2Z"/><path d="M68.4,761.6h1.3c1.4.1,2.3.8,2.4,1.9a2.43,2.43,0,0,1-1.8,2.5,13.73,13.73,0,0,1-2.8.5c-3.3.5-6.6.9-10,1.4a6.15,6.15,0,0,1-1.9.2c-1-.2-1.9-.8-1.8-1.9a2.69,2.69,0,0,1,.9-2,8.21,8.21,0,0,1,3.1-1.1C61.5,762.5,65.1,762,68.4,761.6Z"/><path d="M988.4,764.1h-4.8a3.42,3.42,0,0,1-1.8-.4,3.68,3.68,0,0,1-1.1-1.9,1.76,1.76,0,0,1,.9-1.5,4.39,4.39,0,0,1,2.2-.7c3.2,0,6.4.1,9.5.3,1.9.1,3,1.2,3,2.5s-1.3,2.1-3.2,2.1c-1.6,0-3.2-.2-4.8-.2C988.4,764.2,988.4,764.2,988.4,764.1Z"/></g><g id="Man1"><path class="cls-1" d="M1074.71,472.49c-1.8-6.6-3.5-12.8-5.2-19a47.64,47.64,0,0,0-11-1.8c-5.7-.3-9.4-3.5-11.6-8.7a29.24,29.24,0,0,1-2.1-11.7,98.25,98.25,0,0,1,3.6-24.1c1.2-4.5,3.3-5.9,8.1-5.8a49.22,49.22,0,0,1,7.6.9,131.24,131.24,0,0,1,22.9,6.9,36.74,36.74,0,0,1,20.6,19.8,20.31,20.31,0,0,1,1.8,10.3c-.4,4.4-2.6,6.6-7.1,6.9-2,.1-4.1.1-6.1.2.8,5.2,3.5,13.6,5.8,17.7,1.1-.4,2.1-1.2,3.3-1.3a13.56,13.56,0,0,1,3.3.6c1.7.3,3.5.5,5.6.8a10,10,0,0,0,1.3-1.5,3.13,3.13,0,0,1,3-1.1,56.22,56.22,0,0,1,5.7.9c9.7,2.1,18.5,6,25.9,12.9,7.8,7.3,16.2,14,23.8,21.5a260.91,260.91,0,0,1,26.7,30.8c4.3,5.9,9.4,11.3,14.2,16.9,12.2,14.4,24.6,28.6,36.7,43.1,8.5,10.2,16.5,20.8,24.6,31.3,2.2,2.8,4.1,5.7,6.1,8.6.5.8,1.4,1.6,1.4,2.5a8.73,8.73,0,0,0,2.9,6.3c4.9,5.3,10.9,10.5,15.7,15.8a45.73,45.73,0,0,1,3.8,4.9,8.49,8.49,0,0,1,1.1,2.6,2.33,2.33,0,0,1-.7,2.6,2.66,2.66,0,0,1-2.7.5c-1.4-.6-2.9-1.3-4.3-1.9-.8,1.2.2,1.9.4,2.8a32.38,32.38,0,0,1,1.3,4.1,2.66,2.66,0,0,1-3.7,2.9c-1-.4-1.9-1-3.3-1.7a25.06,25.06,0,0,1,.4,3.2c0,2.6-1.9,3.7-4.3,2.5-1.3-.7-2.4-1.6-3.6-2.4-2.2-1.6-4.4-3.2-6.5-4.8-.4.2-.7.3-.8.5-1.6,3.8-3,4.1-5.7,1-3.1-3.7-6-7.5-9-11.3-.8-1-1.5-2-2.2-3-1.8,0-3.4-.1-4.9,0a5.51,5.51,0,0,1-4.4-1.6c-1.2-1.1-2.3-2.2-3.4-3.4-7.1-8-14.2-16-21.3-24.1-1-1.1-1.9-2.2-2.8-3.3-6.9-8.9-13.6-17.8-20.5-26.6q-4.2-5.25-8.7-10.2c-3.8-4.3-7.7-8.6-11.5-12.8a18.4,18.4,0,0,0-4.3-4c-.6,1.9.1,3.4.4,4.9.5,2.7.2,3.6-2.1,4.7-10.7,5.1-21.8,9.1-33.6,10.9-6.2.9-12.3,1.8-18.5,2.6-12.6,1.7-25.2,1.6-37.6-1.6-3.1-.8-6.1-1.8-9.2-2.8a4.19,4.19,0,0,1-3.2-3.2,3.81,3.81,0,0,0-.8-1.7c-7-10.5-13.8-21.1-21.8-31a397.93,397.93,0,0,1-23.8-32.5c-3.2-5-3.3-4.9-9-5.9a227.47,227.47,0,0,0-32.9-3.1,154.62,154.62,0,0,1-16.7-1.5c-5.5-.8-11.1-1.7-16.6-2.6a32.51,32.51,0,0,1-4.2-1.1c-6.3-1.8-11.8-4.9-15.9-10.2-3.2-4-6.6-7.9-9.4-12.1a439,439,0,0,1-23.2-39.8c-2.5-4.8-4.6-9.8-6.8-14.8a22.41,22.41,0,0,1-2.2-8.8,7.28,7.28,0,0,0-1.5-4c-2.3-3.5-4.6-6.9-6.9-10.4-1-1.6-2-3.1-4-3.9-1.7-.7-1.5-2.8.2-3.7a36.83,36.83,0,0,1,3.5-1.5,39.21,39.21,0,0,0,14.8-10.3,8.43,8.43,0,0,0,2.4-5,19.89,19.89,0,0,1,6.5-13,13.63,13.63,0,0,1,3.5-2.4,2.45,2.45,0,0,1,3.6,1.9,9.31,9.31,0,0,1,.1,2.9c-.3,3.8-.7,7.6-1.1,11.5-.7,6.2-1.1,12,1.9,21.3a38.8,38.8,0,0,1,4.8,3,33.28,33.28,0,0,1,3.6,3.9,156.41,156.41,0,0,1,17.7,24.4c6.2,10.3,12.5,20.5,18.7,30.7a3.74,3.74,0,0,0,.9.9,33.79,33.79,0,0,0,4-.7c7.3-2,14.8-2.3,22.3-2.7,9.9-.6,19.8-1.3,29.7-1.7a101.11,101.11,0,0,1,11,.4c2.4.1,4.7.7,6.8-1.2.6-.6,1.8-.6,2.7-.7,5.5-.5,10.9,0,15.9,2.5,6.3,3.1,12.7,6.2,18,10.9A4.12,4.12,0,0,1,1074.71,472.49Z"/><path class="cls-1" d="M942.31,744.89h-13.4a19.27,19.27,0,0,1-2.4-.1,2.68,2.68,0,0,1-2.5-2.4,7.08,7.08,0,0,1-.1-1.4c.1-4.6.2-9.2.4-13.9.1-2,1-2.9,3-2.9a20.87,20.87,0,0,1,4.3.4c9,1.9,18,1.9,27.1,1.9,1.1,0,2.2,0,3.3.1a2.53,2.53,0,0,1,2.5,2.9c-.3,3.8-.8,7.6-1.4,11.4a4,4,0,0,1-3.7,3.3,24.33,24.33,0,0,1-3.8.3h-13.4A.76.76,0,0,1,942.31,744.89Z"/><path class="cls-1" d="M1175.61,726.69c-.2-2.5-.5-5.1-.6-7.6a20.6,20.6,0,0,1,0-4.3c.2-1.8,1.3-2.7,3.3-2.8,1.7-.1,2.8.5,3.1,2.3a126.76,126.76,0,0,0,4.9,17c1.7,5.3,3.5,10.6,6.5,15.4,1.3,2.1.8,3.6-1.6,4.5-2.8,1.1-5.6,2.2-8.5,3.3-2.3.8-4.1.1-5.1-2.1a8.66,8.66,0,0,1-.6-3.2c-.5-7.5-1-15-1.4-22.4C1175.51,726.69,1175.61,726.69,1175.61,726.69Z"/><path class="cls-3" d="M1129.4,704.2c2.3.2,3.7.4,5.1.5,12.3.7,24.6,1.3,36.9,2a6.15,6.15,0,0,1,1.4.1,4.05,4.05,0,0,1,3.8,3.1c.3,1.2.6,2.5.9,3.7,3.3,12.6,4.3,25.5,4.1,38.5a48.78,48.78,0,0,1-1.2,10c-.5,3-1.2,3.4-4.2,3.7s-6.1.3-9.1.4c-17.7.6-35.5,1.1-53.2,1.7-6.1.2-12.2.3-18.2.3-15.4,0-30.7,0-46.1-.1a74.21,74.21,0,0,1-12.4-1.1,25.58,25.58,0,0,1-15.6-8.7,19.5,19.5,0,0,1-5.1-11.7,30.35,30.35,0,0,1,1.7-12.7,70.45,70.45,0,0,1,6-13.1,245.23,245.23,0,0,1,29.8-41.7c6.9-7.6,14-15,21-22.4,1.1-1.2,2.1-2.3,3.5-3.8a7.48,7.48,0,0,0-2.2-1.1c-23.8-6.2-47-14.5-70.2-22.8-4.5-1.6-9-3.2-13.7-4.8-1.4,1.5-1.4,3.3-1.7,5-1.2,7.9-2.3,15.8-3.6,23.7-2.1,12.6-4.3,25.2-6.4,37.8-2.2,12.9-4.9,25.8-7.9,38.5a20.26,20.26,0,0,0-.6,4.3,3.28,3.28,0,0,1-2.8,3.4c-4.6.9-9.1,1.8-13.8,1-10.9-1.7-21.7-4-32-8.2-1.5-.6-3-1.1-4.5-1.7a3.78,3.78,0,0,1-2.6-4.1l.6-9.6c.8-13.1,1.7-26.2,2.4-39.3.4-8.3,1.4-16.6,2.5-24.8q1.65-13.05,3.6-26.1c1.9-12.4,4.6-24.5,9.8-36A47.89,47.89,0,0,1,942,577c9.1-11.4,21.2-16.7,35.4-17.4,8.4-.4,16.6.9,24.8,2.4,9.8,1.8,19.1,5.3,28.5,8.3,16.9,5.5,33.7,11,50.6,16.4a41.32,41.32,0,0,0,6.1,1.3,179.73,179.73,0,0,0,38.8.8,170.6,170.6,0,0,0,31.6-5.8,99.34,99.34,0,0,0,15.8-5.7,41.73,41.73,0,0,1,4.4-1.9c2-.7,4.1,0,4.8,1.9,3.5,9.2,8,18.2,8.3,28.4.2,7.8-1,15.3-4.9,22.2-2.8,4.8-5.6,9.7-8.8,14.3-10.1,14.4-20.7,28.5-31.8,42.1-4.5,5.4-8.9,10.9-13.4,16.3A32.66,32.66,0,0,0,1129.4,704.2Z"/><path class="cls-3" d="M909.4,365.4c-.9.1-1.4.2-1.9.3-1.3.3-2.1,1.1-1.7,2.4a4.13,4.13,0,0,1-.4,3.6,17.22,17.22,0,0,0-2.2,10.2,6.63,6.63,0,0,1-1.9,5.2c-9.2,10-20.6,13.9-33.8,10.7-13.5-3.2-22.1-12-25.3-25.4a34.17,34.17,0,1,1,67.4-9.6C909.6,363.6,909.5,364.4,909.4,365.4Z"/><path d="M890.11,415.09c-1.8-2.2-3.7-4.6-5.5-6.9s-3.7-4.5-5.4-6.7a2.15,2.15,0,0,1,.1-3,2.39,2.39,0,0,1,3.4.2c.8.8,1.4,1.7,2.2,2.6,2.8,3.4,5.7,6.9,8.4,10.2,3.6-2.1,6.7-4.3,10.1-5.9s6.8-2.4,10.6-3.7a65.84,65.84,0,0,1-2.9-17c-.1-5.8,1.6-11.3,2-17.2a8.66,8.66,0,0,0-6.3,5.2,24.52,24.52,0,0,0-2.3,13.1,38.84,38.84,0,0,1,.4,4.8,2.14,2.14,0,0,1-2.1,2.2,2.25,2.25,0,0,1-2.2-1.6,30,30,0,0,1,2.1-21.1,14.17,14.17,0,0,1,8-7.2c3.9-1.4,7.2.9,7.1,5a30.67,30.67,0,0,1-.7,4.2,51.29,51.29,0,0,0-.3,22.4c.5,2.2,1.3,4.3,1.9,6.3,4.4,1.5,7,4.7,9.4,8.2,3.5,5.1,6.8,10.5,10.5,15.5,7.4,10.2,14.2,20.9,20.9,31.6,1.3,2,2.5,4.1,3.7,6,1.9.7,3.7.1,5.4-.1,11.6-1.4,23.1-3,34.8-4.2a259.34,259.34,0,0,1,37.4-1.3,43.37,43.37,0,0,1,22.6,7.1,30.32,30.32,0,0,0,6.9,3.9,54.92,54.92,0,0,0-2.6-10.8c-1.2-.1-2.5-.2-3.7-.2a24.28,24.28,0,0,1-8-1.2,16.52,16.52,0,0,1-11.1-10.4,44.91,44.91,0,0,1-2.9-15c-.2-7.9,1-15.6,2.4-23.3.1-.5.1-.9.2-1.5a33.08,33.08,0,0,1-7-14,22.61,22.61,0,0,1-.5-8.6c1.4-10.3,10.9-11.7,16.8-8.2a33.46,33.46,0,0,1,4,3.1c3.6-.4,7.4-.9,11.1-1.4a65.25,65.25,0,0,1,22.9.6,31.21,31.21,0,0,1,5.9,1.9,11.8,11.8,0,0,1,7.4,9.4c.1.8.3,1.5.5,2.5,1.5.2,2.9.3,4.3.5,6.1.9,10.5,5.5,10.6,11.7a22.11,22.11,0,0,1-.6,5.7,71.65,71.65,0,0,1-9.5,22.7c.1,1.2.4,2.6.5,4,.3,7.2-3,11.4-10.1,12.8-.5.1-.9.3-1.6.5.1,4.4,2.1,8.2,3.2,12.4,2.3.9,4.5.3,6.7,0a61.58,61.58,0,0,1,20.5,1.4,44.83,44.83,0,0,1,16.1,7.1,176.56,176.56,0,0,1,17,14.1c14,13,26.7,27.1,39,41.7,14.5,17.3,29.1,34.5,43.5,51.8,5.8,7,11.4,14.2,17,21.4,7.4,9.5,14.6,19.1,21.9,28.6,1.8,2.4,3.6,4.6,1.5,7.7,1.6,2.5,3.7,3.9,5.6,5.6,3.7,3.3,7.5,6.5,11.1,9.9a79.67,79.67,0,0,1,6.7,7.5,13.9,13.9,0,0,1,2.3,4.1,3.37,3.37,0,0,1-2.8,4.6,19.22,19.22,0,0,1-3.4,0,24.64,24.64,0,0,1,.9,4c.3,2.6-.7,3.8-3.4,4-.5,0-1-.1-1.4-.1a2.6,2.6,0,0,0-1,.4,26.14,26.14,0,0,1,.6,2.7c.2,2.7-1.8,4.3-4.3,3.3a17.55,17.55,0,0,1-4.2-2.4c-2.7-1.9-5.4-4-8-5.9-1.5.1-1.2,1.4-1.7,2.1a3.15,3.15,0,0,1-4.2,1.2,21.11,21.11,0,0,1-4-2.6c-2.8-2.6-5.5-5.4-8-8.2-2.1-2.2-3.9-4.6-6.1-7.2-.7,0-1.7-.1-2.6-.1a6.61,6.61,0,0,1-5-2.5c-2.7-3.2-5.4-6.3-8.1-9.5q-48.45-56.4-96.9-112.9c-.8-1-1.7-1.9-2.5-2.9a3,3,0,0,1-.8-1.7,3,3,0,0,1,.8-2.1,2.46,2.46,0,0,1,2.2-.2,17.55,17.55,0,0,1,3.1,3c8.6,9.9,17.1,19.9,25.6,29.9q38.55,45,77.2,90c1.2,1.4,2.5,2.8,3.8,4.3,13-1.7,20.1-9.9,24.8-21.1-.9-1.2-1.6-2.4-2.5-3.5-7.5-9.8-14.8-19.7-22.5-29.3-7.7-9.8-15.6-19.5-23.6-29-15.4-18.4-30.8-36.8-46.4-55a314.54,314.54,0,0,0-37.1-36.8c-1.3-1.1-2.8-2.2-4.1-3.3-11.9-9.2-25.5-11.1-40-9-.3,0-.5.3-.8.5,1.1,2.4,2.3,4.8,3.3,7.2.9,2.2,1.6,4.5,2.5,6.8a30,30,0,0,1,1.8,8.4,7.08,7.08,0,0,1,.1,1.4,2.6,2.6,0,0,1-2.6,2.9c-1.7.1-3.5.1-5.3.1-3,0-6-.1-9,0-.8,1.8,0,3.1.4,4.4,5,17.5,11,34.7,17,52,4,11.6,8,23.3,12,34.9a19.16,19.16,0,0,1,.9,3.2,2.28,2.28,0,0,1-4.2,1.5,9.62,9.62,0,0,1-.7-1.8c-8-23.4-16.1-46.9-24-70.3-2.3-6.8-4.2-13.8-6.3-20.6-.3-1-.8-2-1.3-3.2a34,34,0,0,0-3.8,1.2c-3.6,1.3-7.2,2.7-10.8,4a22.59,22.59,0,0,1-3.7,1.1,2.3,2.3,0,0,1-2.9-2.3,12.05,12.05,0,0,1,0-1.9c.6-7,1.2-14,1.8-21.4a84.34,84.34,0,0,0-15.5-9.7,34.1,34.1,0,0,0-12.6-2.9,260.43,260.43,0,0,0-29.3.4c-13.3.9-26.4,2.9-39.6,4.3-3.2.4-6.3.9-9.5,1.4a3.72,3.72,0,0,1-4.3-2.1,407.21,407.21,0,0,0-23.2-36.4c-3.6-5.1-7-10.3-10.5-15.5-1.5-2.1-3.1-4.1-4.7-6.1a3.4,3.4,0,0,0-3-1.3c-8.9,1.2-17.2,3.8-23,11.3a3.83,3.83,0,0,0-.5,1.1c.3.8.6,1.9,1,2.9,5.3,11.1,10.3,22.4,16.1,33.2,3.7,7,8.4,13.6,12.9,20.2,3.1,4.7,6.5,9.1,9.8,13.7.6.8,1.2,1.5,1.7,2.3a33.4,33.4,0,0,0,22.9,13.5c8.2,1.2,16.5,1.9,24.8,2.7,11.5,1.1,22.9,2.3,34.4,3.5,2.5.3,5.1.5,7.6.7a3.7,3.7,0,0,1,3.4,2.2,22,22,0,0,0,2.1,3.2c12.8,16,24.3,32.9,35.5,50.1,3.8,5.8,7.6,11.5,11.4,17.2a8.93,8.93,0,0,1,1.5,2.9,2.57,2.57,0,0,1-.8,2,2.44,2.44,0,0,1-2.2.2,8.76,8.76,0,0,1-2.3-2.4c-3.8-5.6-7.5-11.1-11.2-16.8-10.6-16.4-21.6-32.5-33.7-47.8-4.9-6.2-4.9-6.1-12.6-6.9l-35.3-3.6c-7.2-.7-14.3-1.5-21.5-2.2-1.6-.2-3.1-.6-4.7-.8-9.4-1.5-16.7-6.4-22.3-13.7-4.7-6.1-9-12.5-13.5-18.6-11.1-15-18.6-32-26.5-48.8-.8-1.7-1.6-3.5-2.4-5.2C889.11,419,889.11,419,890.11,415.09Zm158.8-6.2a69,69,0,0,0-2.2,24.6,55.76,55.76,0,0,0,2.3,9.8,11.61,11.61,0,0,0,8.3,7.9,24.18,24.18,0,0,0,12.8.1c2-.5,4-1.2,6-1.7,1.7-.4,2.8-.1,3.3,1.1s-.1,2.5-2,3.2c-1.6.7-3.2,1.2-5.1,1.9,1,3.9,1.8,7.6,2.8,11.3.6,2.6.8,5.5,2.1,7.8s3.8,3.9,5.7,5.7c2.1,1.9,4.1,4,6.3,5.7,2.6-2.8,8.6-11.8,11-16.7-.4-1.2-.8-2.6-1.2-3.9l-4.8-15.6a19.42,19.42,0,0,1-.7-3.3c-.2-2.3.7-3.3,2.9-3.4,1.6-.1,3.2-.1,4.8-.3a4.77,4.77,0,0,0,3.8-2.6,8.76,8.76,0,0,0,.6-7.4c-1-2.9-3.8-3.9-6.6-2.6a26,26,0,0,0-2.4,1.3c-1.2-.2-2.3-.4-3.4-.6-9-1.3-15.2-6.2-18.9-14.4-.4-.8-.9-1.6-1.3-2.5C1064.61,414.59,1056.81,412.09,1048.91,408.89Zm255.3,251c-5.8-7.7-13.2-13.7-20.8-19.9-.6.8-1.1,1.4-1.6,2-3.7,5.8-8.3,10.5-14.8,13.2a17.34,17.34,0,0,0-1.9,1.5c3.8,4.4,7,9,12.4,13.1-.8-2.3-1.3-3.6-1.7-4.9a2.3,2.3,0,0,1,.6-2.6,2.54,2.54,0,0,1,3.1,0c.9.7,1.7,1.5,2.5,2.2l9.2,7.7c.4.4,1,.9,1.9-.1l-5.4-7.2a21.84,21.84,0,0,1-2.2-3.1,2,2,0,0,1,.5-2.6,1.88,1.88,0,0,1,2.6-.2c1.4,1,2.7,2.2,4.1,3.3,1.8,1.5,3.3,3.3,6.4,5-.8-1.4-1-1.9-1.3-2.4-1.6-2-3.2-4-4.7-6a12.54,12.54,0,0,1-1.6-2.4,1.91,1.91,0,0,1,.7-2.5,2.83,2.83,0,0,1,2.2-.2,16,16,0,0,1,3.1,2.2C1299.61,657.49,1301.41,659.29,1304.21,659.89Zm-209.9-171.6a45.68,45.68,0,0,0,12.8,0,10.42,10.42,0,0,0,0-2.5c-1.1-3.3-2.2-6.6-3.4-9.9-.1-.2-.5-.3-1-.6C1099.81,479.29,1097.31,483.49,1094.31,488.29Zm-19.7-8.7c-.8,5.1-1.4,9.4-1.1,13.9,4.2-.7,8.7-2.4,11.4-4.5-1.3-1.2-2.5-2.4-3.7-3.6A67.91,67.91,0,0,0,1074.61,479.59Z"/><path d="M1179.71,715.49c-2.4.1-4.3.3-6.2.3a2,2,0,0,1-2.1-1.6,2.21,2.21,0,0,1,1.5-2.6,18.92,18.92,0,0,1,2.3-.5c5.7-.6,11.4-1.3,17.1-1.9a12.1,12.1,0,0,1,1.9-.1,4.63,4.63,0,0,1,4.4,2.3c.7,1.1,1.3,2.2,1.9,3.3,8.2,15.9,17.5,31.2,26.5,46.6a26,26,0,0,1,2.4,4.7,2.52,2.52,0,0,1-2.6,3.5,11.67,11.67,0,0,1-3.7-.8c-4-1.5-8.1-3.1-12.1-4.7-5.3-2.1-10.7-4.3-15.9-6.6a17.72,17.72,0,0,0-9.4-1.3c-2.1.3-4.1.5-6.2.6a3.53,3.53,0,0,1-2.3-.3,2.69,2.69,0,0,1-1.3-1.8,2.56,2.56,0,0,1,1-1.9,14.29,14.29,0,0,1,3.7-.7c2.2-.3,4.5,0,6.6-1.3-.3-1.6-.5-3.2-.9-4.7C1184.31,736.09,1182,726,1179.71,715.49Z"/><path d="M961,739.29c.3-1.7.5-3.4.9-5.1a2.17,2.17,0,0,1,2.5-1.7,2.25,2.25,0,0,1,1.7,2.1c.1,1.1-.1,2.2,0,3.3.2,5.6.4,11.2.5,16.7,0,1.4.2,2.9.1,4.3a4.59,4.59,0,0,1-3.7,4.5,18.81,18.81,0,0,1-3.3.5l-35.9,1.8c-8.3.4-16.6.9-24.9,1.4a12,12,0,0,1-3.8-.2,2.22,2.22,0,0,1-1.2-3.5,17.27,17.27,0,0,1,2.8-2.6c4.2-3.1,8.6-6.1,12.8-9.3,2.8-2.1,5.5-4.4,8.2-6.6a7.35,7.35,0,0,0,3-6.6c-.2-3-.1-6.1,0-9.1.1-2,1-3.1,2.3-3.2s2.4,1.2,2.3,3.5c-.1,3.5-.1,7,.1,10.1.4.5.5.6.7.7a.6.6,0,0,0,.4.1l33.5-.6A3.13,3.13,0,0,0,961,739.29Z"/><path d="M1056.51,529.89c-.4-.1-1.2-.1-1.6-.5a4,4,0,0,1-1.1-2,1.76,1.76,0,0,1,.9-1.5,7.75,7.75,0,0,1,2.3-.7l16.8-3.9a12,12,0,0,1,3.8-.4c.6,0,1.4.8,1.6,1.5s-.3,1.5-.7,2.1-1.1.7-1.7.9c-6.1,1.5-12.1,2.9-18.2,4.3C1058,529.79,1057.31,529.79,1056.51,529.89Z"/><path d="M963.31,477.19a2.83,2.83,0,0,1-.2,1.5c-.4.6-1,1.4-1.6,1.4a2.83,2.83,0,0,1-2-.9,3.25,3.25,0,0,1-.7-1.7c-.3-2-.7-4.1-.8-6.1a2.05,2.05,0,0,1,3.9-1A21.46,21.46,0,0,1,963,474C963.11,474.89,963.11,475.89,963.31,477.19Z"/><path d="M967.11,470.69c.6.1,1,.1,1.2.3,1.9,1.4,3.8,2.8,5.6,4.3a2.52,2.52,0,0,1,.2,2.1,1.68,1.68,0,0,1-2.3,1.1,13.69,13.69,0,0,1-6.3-4.8,2,2,0,0,1,0-1.7A3.85,3.85,0,0,1,967.11,470.69Z"/><path d="M1262.71,641.59a3.21,3.21,0,0,1-3.1,3.5c-2.2,0-4.2-1.7-4.2-3.7a4.2,4.2,0,0,1,3-3.9C1260.31,637.19,1262.61,639.29,1262.71,641.59Z"/><path d="M1115.61,532.39a3.1,3.1,0,0,1,2.8,3.2,3.33,3.33,0,0,1-3.3,3.3,3.41,3.41,0,0,1-2.9-3.2A3.49,3.49,0,0,1,1115.61,532.39Z"/><path d="M1104.21,499a3,3,0,0,1,3.2,2.9,3.11,3.11,0,0,1-2.8,3.3,3.31,3.31,0,0,1-3.2-2.9A3,3,0,0,1,1104.21,499Z"/><path d="M1129.71,577.59a2.71,2.71,0,0,1-2.8-2.7,3.23,3.23,0,0,1,3.4-3.3,2.8,2.8,0,0,1,2.5,3A3,3,0,0,1,1129.71,577.59Z"/><path d="M1063.21,442.39c-.3-.1-1,0-1.5-.4a3.24,3.24,0,0,1-1.3-1.8,2.52,2.52,0,0,1,1.1-1.9,11.56,11.56,0,0,1,3.2-.8,14.39,14.39,0,0,0,8.5-4,9,9,0,0,1,1.9-1.5,1.91,1.91,0,0,1,2.6.4,2.27,2.27,0,0,1,.3,2.6,3.51,3.51,0,0,1-.5.8A18.67,18.67,0,0,1,1063.21,442.39Z"/><path d="M1100.81,433.29c1.3,0,2.5,1.5,1.9,2.6a20,20,0,0,1-2.8,3.7c-1,1-3,0-3.2-1.4C1096.41,436.09,1098.71,433.29,1100.81,433.29Z"/><path d="M1073.51,442.49c.8.6,1.7.9,2,1.4a2.23,2.23,0,0,1-.2,2.1,3.83,3.83,0,0,1-4,1.8,2.11,2.11,0,0,1-1.4-3.4A39.38,39.38,0,0,1,1073.51,442.49Z"/><path d="M904.31,416.09a3.23,3.23,0,0,1,2.8,3.2,3.82,3.82,0,0,1-3.9,3.3,3.08,3.08,0,0,1-2.8-3.2A3.89,3.89,0,0,1,904.31,416.09Z"/><path d="M1058.61,427.59a9.71,9.71,0,0,1,2.7,1.3,2.57,2.57,0,0,1,.8,2,2.4,2.4,0,0,1-1.5,1.6,22.62,22.62,0,0,1-5.2.1,2.59,2.59,0,0,1-2.4-3.4c1.2-4.1,2.6-8.2,4.1-12.2a2.11,2.11,0,0,1,2.7-1.3,2.37,2.37,0,0,1,1.3,2.8,8.65,8.65,0,0,1-.6,2.3c-.3,1.1-.7,2.1-1.1,3.2a20.16,20.16,0,0,0-.7,2.3A9.29,9.29,0,0,1,1058.61,427.59Z"/><path d="M1073.31,420.49a3.75,3.75,0,0,1-2.1,3.6,2.56,2.56,0,0,1-3-.5,4,4,0,0,1-.6-4.4,3.08,3.08,0,0,1,3.3-2.1C1072.11,417.29,1073.21,418.69,1073.31,420.49Z"/><path d="M1048.91,416.19a27.21,27.21,0,0,1,1.6-2.5,2.32,2.32,0,0,1,3,.3,3.79,3.79,0,0,1-.4,5.4,2.17,2.17,0,0,1-3-.3A12.61,12.61,0,0,1,1048.91,416.19Z"/><polyline id="Path-2" class="cls-4" points="860.86 364.6 870.62 376.33 890.48 355.34"/><path id="Path-3" class="cls-4" d="M1112.21,612.34l-27.3,32.75"/></g></g></g></g></g></g></svg>